%TF.GenerationSoftware,KiCad,Pcbnew,8.0.4*%
%TF.CreationDate,2024-09-08T20:37:16-05:00*%
%TF.ProjectId,rtt_version_final,7274745f-7665-4727-9369-6f6e5f66696e,rev?*%
%TF.SameCoordinates,Original*%
%TF.FileFunction,Copper,L2,Bot*%
%TF.FilePolarity,Positive*%
%FSLAX46Y46*%
G04 Gerber Fmt 4.6, Leading zero omitted, Abs format (unit mm)*
G04 Created by KiCad (PCBNEW 8.0.4) date 2024-09-08 20:37:16*
%MOMM*%
%LPD*%
G01*
G04 APERTURE LIST*
%TA.AperFunction,ComponentPad*%
%ADD10R,3.000000X3.000000*%
%TD*%
%TA.AperFunction,ComponentPad*%
%ADD11C,3.000000*%
%TD*%
%TA.AperFunction,ComponentPad*%
%ADD12R,1.200000X1.200000*%
%TD*%
%TA.AperFunction,ComponentPad*%
%ADD13C,1.200000*%
%TD*%
%TA.AperFunction,ComponentPad*%
%ADD14C,1.600000*%
%TD*%
%TA.AperFunction,ComponentPad*%
%ADD15R,2.000000X1.905000*%
%TD*%
%TA.AperFunction,ComponentPad*%
%ADD16O,2.000000X1.905000*%
%TD*%
%TA.AperFunction,ComponentPad*%
%ADD17R,1.600000X1.600000*%
%TD*%
%TA.AperFunction,ComponentPad*%
%ADD18O,1.600000X1.600000*%
%TD*%
%TA.AperFunction,ComponentPad*%
%ADD19C,1.300000*%
%TD*%
%TA.AperFunction,ComponentPad*%
%ADD20R,2.000000X2.000000*%
%TD*%
%TA.AperFunction,ComponentPad*%
%ADD21C,2.000000*%
%TD*%
%TA.AperFunction,ViaPad*%
%ADD22C,1.300000*%
%TD*%
%TA.AperFunction,Conductor*%
%ADD23C,0.600000*%
%TD*%
%TA.AperFunction,Conductor*%
%ADD24C,1.000000*%
%TD*%
%TA.AperFunction,Conductor*%
%ADD25C,0.800000*%
%TD*%
G04 APERTURE END LIST*
D10*
%TO.P,J3,1,Pin_1*%
%TO.N,/motor_fuerza*%
X161000000Y-77040000D03*
D11*
%TO.P,J3,2,Pin_2*%
%TO.N,+9V*%
X161000000Y-71960000D03*
%TD*%
D12*
%TO.P,C4,1*%
%TO.N,+5V*%
X152000000Y-61472600D03*
D13*
%TO.P,C4,2*%
%TO.N,GND*%
X152000000Y-59472600D03*
%TD*%
D10*
%TO.P,J1,1,Pin_1*%
%TO.N,/pot_4y*%
X140420000Y-98000000D03*
D11*
%TO.P,J1,2,Pin_2*%
%TO.N,/pot_3y*%
X145500000Y-98000000D03*
%TO.P,J1,3,Pin_3*%
%TO.N,/pot_1y*%
X150580000Y-98000000D03*
%TO.P,J1,4,Pin_4*%
%TO.N,/pot_2y*%
X155660000Y-98000000D03*
%TD*%
D12*
%TO.P,C3,1*%
%TO.N,+9V*%
X155500000Y-72000000D03*
D13*
%TO.P,C3,2*%
%TO.N,GND*%
X153500000Y-72000000D03*
%TD*%
D14*
%TO.P,C2,1*%
%TO.N,GND*%
X133000000Y-86000000D03*
%TO.P,C2,2*%
%TO.N,+5V*%
X138000000Y-86000000D03*
%TD*%
%TO.P,C1,1*%
%TO.N,+5V*%
X146500000Y-58000000D03*
%TO.P,C1,2*%
%TO.N,GND*%
X146500000Y-53000000D03*
%TD*%
D15*
%TO.P,U1,1,VI*%
%TO.N,+9V*%
X160500000Y-66080000D03*
D16*
%TO.P,U1,2,GND*%
%TO.N,GND*%
X160500000Y-63540000D03*
%TO.P,U1,3,VO*%
%TO.N,+5V*%
X160500000Y-61000000D03*
%TD*%
D17*
%TO.P,U2,1,EN1\u002C2*%
%TO.N,/EN12*%
X146000000Y-78740000D03*
D18*
%TO.P,U2,2,1A*%
%TO.N,/1A*%
X146000000Y-76200000D03*
%TO.P,U2,3,1Y*%
%TO.N,/pot_1y*%
X146000000Y-73660000D03*
%TO.P,U2,4,GND*%
%TO.N,GND*%
X146000000Y-71120000D03*
%TO.P,U2,5,GND*%
X146000000Y-68580000D03*
%TO.P,U2,6,2Y*%
%TO.N,/pot_2y*%
X146000000Y-66040000D03*
%TO.P,U2,7,2A*%
%TO.N,/2A*%
X146000000Y-63500000D03*
%TO.P,U2,8,VCC2*%
%TO.N,+5V*%
X146000000Y-60960000D03*
%TO.P,U2,9,EN3\u002C4*%
%TO.N,/EN34*%
X138380000Y-60960000D03*
%TO.P,U2,10,3A*%
%TO.N,/3A*%
X138380000Y-63500000D03*
%TO.P,U2,11,3Y*%
%TO.N,/pot_3y*%
X138380000Y-66040000D03*
%TO.P,U2,12,GND*%
%TO.N,GND*%
X138380000Y-68580000D03*
%TO.P,U2,13,GND*%
X138380000Y-71120000D03*
%TO.P,U2,14,4Y*%
%TO.N,/pot_4y*%
X138380000Y-73660000D03*
%TO.P,U2,15,4A*%
%TO.N,/4A*%
X138380000Y-76200000D03*
%TO.P,U2,16,VCC1*%
%TO.N,+5V*%
X138380000Y-78740000D03*
%TD*%
D19*
%TO.P,Q2,1,E*%
%TO.N,GND*%
X158960000Y-83500000D03*
%TO.P,Q2,2,B*%
%TO.N,Net-(Q2-B)*%
X160230000Y-82230000D03*
%TO.P,Q2,3,C*%
%TO.N,/motor_fuerza*%
X161500000Y-83500000D03*
%TD*%
D20*
%TO.P,U3,1,3V3*%
%TO.N,unconnected-(U3-3V3-Pad1)*%
X130000000Y-91440000D03*
D21*
%TO.P,U3,2,GND*%
%TO.N,GND*%
X130000000Y-88900000D03*
%TO.P,U3,3,D15*%
%TO.N,/4A*%
X130000000Y-86360000D03*
%TO.P,U3,4,D2*%
%TO.N,/3A*%
X130000000Y-83820000D03*
%TO.P,U3,5,D4*%
%TO.N,/EN34*%
X130000000Y-81280000D03*
%TO.P,U3,6,RX2*%
%TO.N,unconnected-(U3-RX2-Pad6)*%
X130000000Y-78740000D03*
%TO.P,U3,7,TX2*%
%TO.N,unconnected-(U3-TX2-Pad7)*%
X130000000Y-76200000D03*
%TO.P,U3,8,D5*%
%TO.N,unconnected-(U3-D5-Pad8)*%
X130000000Y-73660000D03*
%TO.P,U3,9,D18*%
%TO.N,unconnected-(U3-D18-Pad9)*%
X130000000Y-71120000D03*
%TO.P,U3,10,D19*%
%TO.N,unconnected-(U3-D19-Pad10)*%
X130000000Y-68580000D03*
%TO.P,U3,11,D21*%
%TO.N,/EN12*%
X130000000Y-66040000D03*
%TO.P,U3,12,RX0*%
%TO.N,unconnected-(U3-RX0-Pad12)*%
X130000000Y-63500000D03*
%TO.P,U3,13,TX0*%
%TO.N,unconnected-(U3-TX0-Pad13)*%
X130000000Y-60960000D03*
%TO.P,U3,14,D22*%
%TO.N,/1A*%
X130000000Y-58420000D03*
%TO.P,U3,15,D23*%
%TO.N,/2A*%
X130000000Y-55880000D03*
%TO.P,U3,16,EN*%
%TO.N,unconnected-(U3-EN-Pad16)*%
X104600000Y-55880000D03*
%TO.P,U3,17,VP*%
%TO.N,unconnected-(U3-VP-Pad17)*%
X104600000Y-58420000D03*
%TO.P,U3,18,VN*%
%TO.N,unconnected-(U3-VN-Pad18)*%
X104600000Y-60960000D03*
%TO.P,U3,19,D34*%
%TO.N,unconnected-(U3-D34-Pad19)*%
X104600000Y-63500000D03*
%TO.P,U3,20,D35*%
%TO.N,unconnected-(U3-D35-Pad20)*%
X104600000Y-66040000D03*
%TO.P,U3,21,D32*%
%TO.N,unconnected-(U3-D32-Pad21)*%
X104600000Y-68580000D03*
%TO.P,U3,22,D33*%
%TO.N,unconnected-(U3-D33-Pad22)*%
X104600000Y-71120000D03*
%TO.P,U3,23,D25*%
%TO.N,unconnected-(U3-D25-Pad23)*%
X104600000Y-73660000D03*
%TO.P,U3,24,D26*%
%TO.N,unconnected-(U3-D26-Pad24)*%
X104600000Y-76200000D03*
%TO.P,U3,25,D27*%
%TO.N,unconnected-(U3-D27-Pad25)*%
X104600000Y-78740000D03*
%TO.P,U3,26,D14*%
%TO.N,unconnected-(U3-D14-Pad26)*%
X104600000Y-81280000D03*
%TO.P,U3,27,D12*%
%TO.N,unconnected-(U3-D12-Pad27)*%
X104600000Y-83820000D03*
%TO.P,U3,28,D13*%
%TO.N,/pwm*%
X104600000Y-86360000D03*
%TO.P,U3,29,GND*%
%TO.N,GND*%
X104600000Y-88900000D03*
%TO.P,U3,30,VIN*%
%TO.N,+5V*%
X104600000Y-91440000D03*
%TD*%
D14*
%TO.P,C5,1*%
%TO.N,+9V*%
X166000000Y-81000000D03*
%TO.P,C5,2*%
%TO.N,/motor_fuerza*%
X166000000Y-86000000D03*
%TD*%
D10*
%TO.P,J2,1,Pin_1*%
%TO.N,+9V*%
X157040000Y-54000000D03*
D11*
%TO.P,J2,2,Pin_2*%
%TO.N,GND*%
X151960000Y-54000000D03*
%TD*%
D14*
%TO.P,R1,1*%
%TO.N,/pwm*%
X162500000Y-95310000D03*
D18*
%TO.P,R1,2*%
%TO.N,Net-(Q2-B)*%
X162500000Y-87690000D03*
%TD*%
D22*
%TO.N,GND*%
X147500000Y-72000000D03*
X136500000Y-68500000D03*
X155000000Y-78500000D03*
X135500000Y-84000000D03*
%TD*%
D23*
%TO.N,/3A*%
X133500000Y-80320000D02*
X130000000Y-83820000D01*
X133500000Y-65000000D02*
X133500000Y-80320000D01*
X138380000Y-63500000D02*
X135000000Y-63500000D01*
X135000000Y-63500000D02*
X133500000Y-65000000D01*
%TO.N,/EN34*%
X132500000Y-78780000D02*
X130000000Y-81280000D01*
X134040000Y-60960000D02*
X132500000Y-62500000D01*
X132500000Y-62500000D02*
X132500000Y-78780000D01*
X138380000Y-60960000D02*
X134040000Y-60960000D01*
D24*
%TO.N,/pot_4y*%
X138380000Y-73660000D02*
X139934000Y-75214000D01*
X139934000Y-75214000D02*
X139934000Y-97514000D01*
X139934000Y-97514000D02*
X140420000Y-98000000D01*
%TO.N,/pot_2y*%
X148040000Y-66040000D02*
X146000000Y-66040000D01*
X149500000Y-67500000D02*
X148040000Y-66040000D01*
X155660000Y-98000000D02*
X149500000Y-91840000D01*
X149500000Y-91840000D02*
X149500000Y-67500000D01*
%TO.N,/pot_3y*%
X142000000Y-69660000D02*
X142000000Y-94500000D01*
X138380000Y-66040000D02*
X142000000Y-69660000D01*
X142000000Y-94500000D02*
X145500000Y-98000000D01*
%TO.N,/pot_1y*%
X147554000Y-94974000D02*
X147554000Y-75214000D01*
X147554000Y-75214000D02*
X146000000Y-73660000D01*
X150580000Y-98000000D02*
X147554000Y-94974000D01*
%TO.N,+9V*%
X163920000Y-66080000D02*
X164000000Y-66000000D01*
X166000000Y-74000000D02*
X164000000Y-72000000D01*
X157040000Y-54000000D02*
X164000000Y-54000000D01*
X163960000Y-71960000D02*
X161000000Y-71960000D01*
X166000000Y-56000000D02*
X166000000Y-64000000D01*
X164000000Y-72000000D02*
X163960000Y-71960000D01*
X164000000Y-66000000D02*
X164000000Y-72000000D01*
X166000000Y-64000000D02*
X164000000Y-66000000D01*
X164000000Y-54000000D02*
X166000000Y-56000000D01*
X155500000Y-72000000D02*
X160960000Y-72000000D01*
X166000000Y-81000000D02*
X166000000Y-74000000D01*
X160960000Y-72000000D02*
X161000000Y-71960000D01*
X160500000Y-66080000D02*
X163920000Y-66080000D01*
%TO.N,GND*%
X136580000Y-68580000D02*
X136500000Y-68500000D01*
X151960000Y-54000000D02*
X151500000Y-54000000D01*
X138380000Y-68580000D02*
X136580000Y-68580000D01*
X138380000Y-71120000D02*
X138380000Y-68580000D01*
%TO.N,/motor_fuerza*%
X160770000Y-77270000D02*
X161000000Y-77040000D01*
D25*
X162149999Y-82850001D02*
X161500000Y-83500000D01*
X164000000Y-86000000D02*
X161500000Y-83500000D01*
X162149999Y-78189999D02*
X162149999Y-82850001D01*
D24*
X161000000Y-77040000D02*
X162149999Y-78189999D01*
D25*
X166000000Y-86000000D02*
X164000000Y-86000000D01*
D23*
%TO.N,/pwm*%
X103046000Y-87914000D02*
X104600000Y-86360000D01*
X137000000Y-102500000D02*
X130500000Y-96000000D01*
X103046000Y-92083688D02*
X103046000Y-87914000D01*
X130500000Y-96000000D02*
X106962312Y-96000000D01*
X158500000Y-102500000D02*
X137000000Y-102500000D01*
X162500000Y-98500000D02*
X162500000Y-95310000D01*
X106962312Y-96000000D02*
X103046000Y-92083688D01*
X158500000Y-102500000D02*
X162500000Y-98500000D01*
D24*
%TO.N,+5V*%
X157500000Y-101000000D02*
X138500000Y-101000000D01*
X132500000Y-95000000D02*
X131500000Y-94000000D01*
X149709800Y-61472600D02*
X152000000Y-61472600D01*
X160027400Y-61472600D02*
X160500000Y-61000000D01*
X138000000Y-86000000D02*
X138000000Y-79120000D01*
X146500000Y-60460000D02*
X146000000Y-60960000D01*
X152000000Y-63000000D02*
X151618600Y-63381400D01*
X146500000Y-58000000D02*
X148000000Y-58000000D01*
X107160000Y-94000000D02*
X104600000Y-91440000D01*
X148000000Y-58000000D02*
X148000000Y-59762800D01*
X131500000Y-94000000D02*
X107160000Y-94000000D01*
X159500000Y-98000000D02*
X159500000Y-99000000D01*
X146500000Y-58000000D02*
X146500000Y-60460000D01*
X151618600Y-63381400D02*
X151618600Y-90118600D01*
X152000000Y-61472600D02*
X160027400Y-61472600D01*
X138000000Y-79120000D02*
X138380000Y-78740000D01*
X138000000Y-86000000D02*
X138000000Y-89500000D01*
X138500000Y-101000000D02*
X132500000Y-95000000D01*
X148000000Y-59762800D02*
X149709800Y-61472600D01*
X138000000Y-89500000D02*
X132500000Y-95000000D01*
X159500000Y-99000000D02*
X157500000Y-101000000D01*
X152000000Y-61472600D02*
X152000000Y-63000000D01*
X151618600Y-90118600D02*
X159500000Y-98000000D01*
D23*
%TO.N,/2A*%
X144500000Y-53500000D02*
X132380000Y-53500000D01*
X144646000Y-62146000D02*
X144646000Y-53646000D01*
X144646000Y-53646000D02*
X144500000Y-53500000D01*
X132380000Y-53500000D02*
X130000000Y-55880000D01*
X146000000Y-63500000D02*
X144646000Y-62146000D01*
%TO.N,/4A*%
X134854000Y-76500000D02*
X134854000Y-81506000D01*
X138380000Y-76200000D02*
X135154000Y-76200000D01*
X135154000Y-76200000D02*
X134854000Y-76500000D01*
X134854000Y-81506000D02*
X130000000Y-86360000D01*
%TO.N,/1A*%
X144500000Y-74700000D02*
X144500000Y-63207738D01*
X143500000Y-62207738D02*
X143500000Y-54500000D01*
X133920000Y-54500000D02*
X130000000Y-58420000D01*
X144500000Y-63207738D02*
X143500000Y-62207738D01*
X146000000Y-76200000D02*
X144500000Y-74700000D01*
X143500000Y-54500000D02*
X133920000Y-54500000D01*
%TO.N,/EN12*%
X143500000Y-76240000D02*
X143500000Y-63500000D01*
X143500000Y-63500000D02*
X142500000Y-62500000D01*
X142500000Y-62500000D02*
X142500000Y-55500000D01*
X142500000Y-55500000D02*
X137657688Y-55500000D01*
X131554000Y-64486000D02*
X130000000Y-66040000D01*
X131554000Y-61603688D02*
X131554000Y-64486000D01*
X137657688Y-55500000D02*
X131554000Y-61603688D01*
X146000000Y-78740000D02*
X143500000Y-76240000D01*
%TO.N,Net-(Q2-B)*%
X160230000Y-82230000D02*
X160230000Y-87230000D01*
X160690000Y-87690000D02*
X162500000Y-87690000D01*
X160230000Y-87230000D02*
X160690000Y-87690000D01*
X162500000Y-87690000D02*
X162500000Y-87410000D01*
%TD*%
%TA.AperFunction,Conductor*%
%TO.N,GND*%
G36*
X137274184Y-64520185D02*
G01*
X137298374Y-64540517D01*
X137360252Y-64607734D01*
X137360256Y-64607738D01*
X137443008Y-64672147D01*
X137483821Y-64728857D01*
X137487496Y-64798630D01*
X137452864Y-64859313D01*
X137443014Y-64867848D01*
X137384400Y-64913469D01*
X137360257Y-64932261D01*
X137191833Y-65115217D01*
X137055826Y-65323393D01*
X136955936Y-65551118D01*
X136894892Y-65792175D01*
X136894890Y-65792187D01*
X136874357Y-66039994D01*
X136874357Y-66040005D01*
X136894890Y-66287812D01*
X136894892Y-66287824D01*
X136955936Y-66528881D01*
X137055826Y-66756606D01*
X137191833Y-66964782D01*
X137191836Y-66964785D01*
X137360256Y-67147738D01*
X137556491Y-67300474D01*
X137775190Y-67418828D01*
X138010386Y-67499571D01*
X138128946Y-67519354D01*
X138191831Y-67549804D01*
X138196218Y-67553982D01*
X140763181Y-70120945D01*
X140796666Y-70182268D01*
X140799500Y-70208626D01*
X140799500Y-74082374D01*
X140779815Y-74149413D01*
X140727011Y-74195168D01*
X140657853Y-74205112D01*
X140594297Y-74176087D01*
X140587819Y-74170055D01*
X140265592Y-73847828D01*
X139900238Y-73482474D01*
X139866755Y-73421154D01*
X139865609Y-73415189D01*
X139865109Y-73412196D01*
X139865108Y-73412179D01*
X139815916Y-73217926D01*
X139804063Y-73171118D01*
X139704173Y-72943393D01*
X139568166Y-72735217D01*
X139535183Y-72699388D01*
X139399744Y-72552262D01*
X139203509Y-72399526D01*
X139203507Y-72399525D01*
X139203506Y-72399524D01*
X138984811Y-72281172D01*
X138984802Y-72281169D01*
X138749616Y-72200429D01*
X138504335Y-72159500D01*
X138255665Y-72159500D01*
X138010383Y-72200429D01*
X137775197Y-72281169D01*
X137775188Y-72281172D01*
X137556493Y-72399524D01*
X137360257Y-72552261D01*
X137191833Y-72735217D01*
X137055826Y-72943393D01*
X136955936Y-73171118D01*
X136894892Y-73412175D01*
X136894890Y-73412187D01*
X136874357Y-73659994D01*
X136874357Y-73660005D01*
X136894890Y-73907812D01*
X136894892Y-73907824D01*
X136955936Y-74148881D01*
X137055826Y-74376606D01*
X137191833Y-74584782D01*
X137191836Y-74584785D01*
X137360256Y-74767738D01*
X137443008Y-74832147D01*
X137483821Y-74888857D01*
X137487496Y-74958630D01*
X137452864Y-75019313D01*
X137443014Y-75027848D01*
X137427252Y-75040117D01*
X137360255Y-75092262D01*
X137360252Y-75092265D01*
X137298374Y-75159483D01*
X137238487Y-75195474D01*
X137207145Y-75199500D01*
X135055455Y-75199500D01*
X134958812Y-75218724D01*
X134862171Y-75237947D01*
X134862163Y-75237949D01*
X134811903Y-75258768D01*
X134811902Y-75258768D01*
X134674457Y-75315699D01*
X134673660Y-75313776D01*
X134614514Y-75326073D01*
X134549277Y-75301054D01*
X134507924Y-75244737D01*
X134500500Y-75202476D01*
X134500500Y-65465782D01*
X134520185Y-65398743D01*
X134536819Y-65378101D01*
X135378102Y-64536819D01*
X135439425Y-64503334D01*
X135465783Y-64500500D01*
X137207145Y-64500500D01*
X137274184Y-64520185D01*
G37*
%TD.AperFunction*%
%TA.AperFunction,Conductor*%
G36*
X147558413Y-67260185D02*
G01*
X147579055Y-67276819D01*
X148263181Y-67960944D01*
X148296666Y-68022267D01*
X148299500Y-68048625D01*
X148299500Y-73962374D01*
X148279815Y-74029413D01*
X148227011Y-74075168D01*
X148157853Y-74085112D01*
X148094297Y-74056087D01*
X148087819Y-74050055D01*
X147520240Y-73482476D01*
X147486755Y-73421153D01*
X147485610Y-73415190D01*
X147485108Y-73412190D01*
X147485108Y-73412179D01*
X147424063Y-73171119D01*
X147417198Y-73155469D01*
X147324173Y-72943393D01*
X147188166Y-72735217D01*
X147155183Y-72699388D01*
X147019744Y-72552262D01*
X146823509Y-72399526D01*
X146823507Y-72399525D01*
X146823506Y-72399524D01*
X146604811Y-72281172D01*
X146604802Y-72281169D01*
X146369616Y-72200429D01*
X146124335Y-72159500D01*
X145875665Y-72159500D01*
X145644909Y-72198005D01*
X145575544Y-72189623D01*
X145521722Y-72145070D01*
X145500532Y-72078491D01*
X145500500Y-72075696D01*
X145500500Y-67624303D01*
X145520185Y-67557264D01*
X145572989Y-67511509D01*
X145642147Y-67501565D01*
X145644860Y-67501986D01*
X145875665Y-67540500D01*
X145875666Y-67540500D01*
X146124335Y-67540500D01*
X146369614Y-67499571D01*
X146604810Y-67418828D01*
X146823509Y-67300474D01*
X146861325Y-67271041D01*
X146866972Y-67266646D01*
X146931967Y-67241004D01*
X146943134Y-67240500D01*
X147491374Y-67240500D01*
X147558413Y-67260185D01*
G37*
%TD.AperFunction*%
%TA.AperFunction,Conductor*%
G36*
X107943039Y-48019685D02*
G01*
X107988794Y-48072489D01*
X108000000Y-48124000D01*
X108000000Y-57500000D01*
X126500000Y-57500000D01*
X126500000Y-50385258D01*
X163749500Y-50385258D01*
X163749500Y-50614741D01*
X163764603Y-50729451D01*
X163779452Y-50842238D01*
X163819417Y-50991392D01*
X163838842Y-51063887D01*
X163926650Y-51275876D01*
X163926657Y-51275890D01*
X164041392Y-51474617D01*
X164181081Y-51656661D01*
X164181089Y-51656670D01*
X164343330Y-51818911D01*
X164343338Y-51818918D01*
X164525382Y-51958607D01*
X164525385Y-51958608D01*
X164525388Y-51958611D01*
X164724112Y-52073344D01*
X164724117Y-52073346D01*
X164724123Y-52073349D01*
X164807197Y-52107759D01*
X164936113Y-52161158D01*
X165157762Y-52220548D01*
X165385266Y-52250500D01*
X165385273Y-52250500D01*
X165614727Y-52250500D01*
X165614734Y-52250500D01*
X165842238Y-52220548D01*
X166063887Y-52161158D01*
X166275888Y-52073344D01*
X166474612Y-51958611D01*
X166656661Y-51818919D01*
X166656665Y-51818914D01*
X166656670Y-51818911D01*
X166818911Y-51656670D01*
X166818914Y-51656665D01*
X166818919Y-51656661D01*
X166958611Y-51474612D01*
X167073344Y-51275888D01*
X167161158Y-51063887D01*
X167220548Y-50842238D01*
X167250500Y-50614734D01*
X167250500Y-50385266D01*
X167220548Y-50157762D01*
X167161158Y-49936113D01*
X167073344Y-49724112D01*
X166958611Y-49525388D01*
X166958608Y-49525385D01*
X166958607Y-49525382D01*
X166818918Y-49343338D01*
X166818911Y-49343330D01*
X166656670Y-49181089D01*
X166656661Y-49181081D01*
X166474617Y-49041392D01*
X166275890Y-48926657D01*
X166275876Y-48926650D01*
X166063887Y-48838842D01*
X165842238Y-48779452D01*
X165804215Y-48774446D01*
X165614741Y-48749500D01*
X165614734Y-48749500D01*
X165385266Y-48749500D01*
X165385258Y-48749500D01*
X165168715Y-48778009D01*
X165157762Y-48779452D01*
X165064076Y-48804554D01*
X164936112Y-48838842D01*
X164724123Y-48926650D01*
X164724109Y-48926657D01*
X164525382Y-49041392D01*
X164343338Y-49181081D01*
X164181081Y-49343338D01*
X164041392Y-49525382D01*
X163926657Y-49724109D01*
X163926650Y-49724123D01*
X163838842Y-49936112D01*
X163779453Y-50157759D01*
X163779451Y-50157770D01*
X163749500Y-50385258D01*
X126500000Y-50385258D01*
X126500000Y-48124000D01*
X126519685Y-48056961D01*
X126572489Y-48011206D01*
X126624000Y-48000000D01*
X167876000Y-48000000D01*
X167943039Y-48019685D01*
X167988794Y-48072489D01*
X168000000Y-48124000D01*
X168000000Y-105876000D01*
X167980315Y-105943039D01*
X167927511Y-105988794D01*
X167876000Y-106000000D01*
X100124000Y-106000000D01*
X100056961Y-105980315D01*
X100011206Y-105927511D01*
X100000000Y-105876000D01*
X100000000Y-99285258D01*
X103319500Y-99285258D01*
X103319500Y-99514741D01*
X103338342Y-99657853D01*
X103349452Y-99742238D01*
X103356809Y-99769695D01*
X103408842Y-99963887D01*
X103496650Y-100175876D01*
X103496657Y-100175890D01*
X103611392Y-100374617D01*
X103751081Y-100556661D01*
X103751089Y-100556670D01*
X103913330Y-100718911D01*
X103913338Y-100718918D01*
X104095382Y-100858607D01*
X104095385Y-100858608D01*
X104095388Y-100858611D01*
X104294112Y-100973344D01*
X104294117Y-100973346D01*
X104294123Y-100973349D01*
X104385480Y-101011190D01*
X104506113Y-101061158D01*
X104727762Y-101120548D01*
X104955266Y-101150500D01*
X104955273Y-101150500D01*
X105184727Y-101150500D01*
X105184734Y-101150500D01*
X105412238Y-101120548D01*
X105633887Y-101061158D01*
X105845888Y-100973344D01*
X106044612Y-100858611D01*
X106226661Y-100718919D01*
X106226665Y-100718914D01*
X106226670Y-100718911D01*
X106388911Y-100556670D01*
X106388914Y-100556665D01*
X106388919Y-100556661D01*
X106528611Y-100374612D01*
X106643344Y-100175888D01*
X106731158Y-99963887D01*
X106790548Y-99742238D01*
X106820500Y-99514734D01*
X106820500Y-99285266D01*
X106820499Y-99285258D01*
X127829500Y-99285258D01*
X127829500Y-99514741D01*
X127848342Y-99657853D01*
X127859452Y-99742238D01*
X127866809Y-99769695D01*
X127918842Y-99963887D01*
X128006650Y-100175876D01*
X128006657Y-100175890D01*
X128121392Y-100374617D01*
X128261081Y-100556661D01*
X128261089Y-100556670D01*
X128423330Y-100718911D01*
X128423338Y-100718918D01*
X128605382Y-100858607D01*
X128605385Y-100858608D01*
X128605388Y-100858611D01*
X128804112Y-100973344D01*
X128804117Y-100973346D01*
X128804123Y-100973349D01*
X128895480Y-101011190D01*
X129016113Y-101061158D01*
X129237762Y-101120548D01*
X129465266Y-101150500D01*
X129465273Y-101150500D01*
X129694727Y-101150500D01*
X129694734Y-101150500D01*
X129922238Y-101120548D01*
X130143887Y-101061158D01*
X130355888Y-100973344D01*
X130554612Y-100858611D01*
X130736661Y-100718919D01*
X130736665Y-100718914D01*
X130736670Y-100718911D01*
X130898911Y-100556670D01*
X130898914Y-100556665D01*
X130898919Y-100556661D01*
X131038611Y-100374612D01*
X131153344Y-100175888D01*
X131241158Y-99963887D01*
X131300548Y-99742238D01*
X131330500Y-99514734D01*
X131330500Y-99285266D01*
X131300548Y-99057762D01*
X131241158Y-98836113D01*
X131187422Y-98706383D01*
X131153349Y-98624123D01*
X131153346Y-98624117D01*
X131153344Y-98624112D01*
X131038611Y-98425388D01*
X131038608Y-98425385D01*
X131038607Y-98425382D01*
X130898918Y-98243338D01*
X130898911Y-98243330D01*
X130736670Y-98081089D01*
X130736661Y-98081081D01*
X130554617Y-97941392D01*
X130355890Y-97826657D01*
X130355876Y-97826650D01*
X130143887Y-97738842D01*
X130069394Y-97718882D01*
X129922238Y-97679452D01*
X129884215Y-97674446D01*
X129694741Y-97649500D01*
X129694734Y-97649500D01*
X129465266Y-97649500D01*
X129465258Y-97649500D01*
X129248715Y-97678009D01*
X129237762Y-97679452D01*
X129144076Y-97704554D01*
X129016112Y-97738842D01*
X128804123Y-97826650D01*
X128804109Y-97826657D01*
X128605382Y-97941392D01*
X128423338Y-98081081D01*
X128261081Y-98243338D01*
X128121392Y-98425382D01*
X128006657Y-98624109D01*
X128006650Y-98624123D01*
X127918842Y-98836112D01*
X127859453Y-99057759D01*
X127859451Y-99057770D01*
X127829500Y-99285258D01*
X106820499Y-99285258D01*
X106790548Y-99057762D01*
X106731158Y-98836113D01*
X106677422Y-98706383D01*
X106643349Y-98624123D01*
X106643346Y-98624117D01*
X106643344Y-98624112D01*
X106528611Y-98425388D01*
X106528608Y-98425385D01*
X106528607Y-98425382D01*
X106388918Y-98243338D01*
X106388911Y-98243330D01*
X106226670Y-98081089D01*
X106226661Y-98081081D01*
X106044617Y-97941392D01*
X105845890Y-97826657D01*
X105845876Y-97826650D01*
X105633887Y-97738842D01*
X105559394Y-97718882D01*
X105412238Y-97679452D01*
X105374215Y-97674446D01*
X105184741Y-97649500D01*
X105184734Y-97649500D01*
X104955266Y-97649500D01*
X104955258Y-97649500D01*
X104738715Y-97678009D01*
X104727762Y-97679452D01*
X104634076Y-97704554D01*
X104506112Y-97738842D01*
X104294123Y-97826650D01*
X104294109Y-97826657D01*
X104095382Y-97941392D01*
X103913338Y-98081081D01*
X103751081Y-98243338D01*
X103611392Y-98425382D01*
X103496657Y-98624109D01*
X103496650Y-98624123D01*
X103408842Y-98836112D01*
X103349453Y-99057759D01*
X103349451Y-99057770D01*
X103319500Y-99285258D01*
X100000000Y-99285258D01*
X100000000Y-92182231D01*
X102045499Y-92182231D01*
X102083947Y-92375517D01*
X102083950Y-92375527D01*
X102159364Y-92557595D01*
X102159371Y-92557608D01*
X102268859Y-92721468D01*
X102268860Y-92721469D01*
X102268861Y-92721470D01*
X102408218Y-92860827D01*
X102408219Y-92860827D01*
X102415286Y-92867894D01*
X102415285Y-92867894D01*
X102415289Y-92867897D01*
X106324527Y-96777137D01*
X106324531Y-96777140D01*
X106488391Y-96886628D01*
X106488400Y-96886633D01*
X106514377Y-96897393D01*
X106670477Y-96962052D01*
X106835554Y-96994888D01*
X106863767Y-97000500D01*
X106863770Y-97000501D01*
X106863772Y-97000501D01*
X107066967Y-97000501D01*
X107066987Y-97000500D01*
X130034218Y-97000500D01*
X130101257Y-97020185D01*
X130121899Y-97036819D01*
X136219735Y-103134655D01*
X136219764Y-103134686D01*
X136362214Y-103277136D01*
X136362218Y-103277139D01*
X136526079Y-103386628D01*
X136526092Y-103386635D01*
X136654833Y-103439961D01*
X136697744Y-103457735D01*
X136708164Y-103462051D01*
X136804812Y-103481275D01*
X136853135Y-103490887D01*
X136901458Y-103500500D01*
X136901459Y-103500500D01*
X158598542Y-103500500D01*
X158617870Y-103496655D01*
X158695188Y-103481275D01*
X158791836Y-103462051D01*
X158845165Y-103439961D01*
X158973914Y-103386632D01*
X158975970Y-103385258D01*
X163749500Y-103385258D01*
X163749500Y-103614741D01*
X163774446Y-103804215D01*
X163779452Y-103842238D01*
X163779453Y-103842240D01*
X163838842Y-104063887D01*
X163926650Y-104275876D01*
X163926657Y-104275890D01*
X164041392Y-104474617D01*
X164181081Y-104656661D01*
X164181089Y-104656670D01*
X164343330Y-104818911D01*
X164343338Y-104818918D01*
X164525382Y-104958607D01*
X164525385Y-104958608D01*
X164525388Y-104958611D01*
X164724112Y-105073344D01*
X164724117Y-105073346D01*
X164724123Y-105073349D01*
X164815480Y-105111190D01*
X164936113Y-105161158D01*
X165157762Y-105220548D01*
X165385266Y-105250500D01*
X165385273Y-105250500D01*
X165614727Y-105250500D01*
X165614734Y-105250500D01*
X165842238Y-105220548D01*
X166063887Y-105161158D01*
X166275888Y-105073344D01*
X166474612Y-104958611D01*
X166656661Y-104818919D01*
X166656665Y-104818914D01*
X166656670Y-104818911D01*
X166818911Y-104656670D01*
X166818914Y-104656665D01*
X166818919Y-104656661D01*
X166958611Y-104474612D01*
X167073344Y-104275888D01*
X167161158Y-104063887D01*
X167220548Y-103842238D01*
X167250500Y-103614734D01*
X167250500Y-103385266D01*
X167220548Y-103157762D01*
X167161158Y-102936113D01*
X167073344Y-102724112D01*
X166958611Y-102525388D01*
X166958608Y-102525385D01*
X166958607Y-102525382D01*
X166818918Y-102343338D01*
X166818911Y-102343330D01*
X166656670Y-102181089D01*
X166656661Y-102181081D01*
X166474617Y-102041392D01*
X166275890Y-101926657D01*
X166275876Y-101926650D01*
X166063887Y-101838842D01*
X165842238Y-101779452D01*
X165804215Y-101774446D01*
X165614741Y-101749500D01*
X165614734Y-101749500D01*
X165385266Y-101749500D01*
X165385258Y-101749500D01*
X165168715Y-101778009D01*
X165157762Y-101779452D01*
X165064076Y-101804554D01*
X164936112Y-101838842D01*
X164724123Y-101926650D01*
X164724109Y-101926657D01*
X164525382Y-102041392D01*
X164343338Y-102181081D01*
X164181081Y-102343338D01*
X164041392Y-102525382D01*
X163926657Y-102724109D01*
X163926650Y-102724123D01*
X163838842Y-102936112D01*
X163838842Y-102936113D01*
X163784807Y-103137779D01*
X163779453Y-103157759D01*
X163779451Y-103157770D01*
X163749500Y-103385258D01*
X158975970Y-103385258D01*
X159137782Y-103277139D01*
X159277139Y-103137782D01*
X159277139Y-103137780D01*
X159287347Y-103127573D01*
X159287348Y-103127570D01*
X163277139Y-99137782D01*
X163306072Y-99094481D01*
X163386632Y-98973914D01*
X163462051Y-98791835D01*
X163488369Y-98659527D01*
X163500500Y-98598543D01*
X163500500Y-96487027D01*
X163520185Y-96419988D01*
X163533265Y-96403049D01*
X163688164Y-96234785D01*
X163824173Y-96026607D01*
X163924063Y-95798881D01*
X163985108Y-95557821D01*
X163995299Y-95434832D01*
X164005643Y-95310005D01*
X164005643Y-95309994D01*
X163985109Y-95062187D01*
X163985107Y-95062175D01*
X163924063Y-94821118D01*
X163824173Y-94593393D01*
X163688166Y-94385217D01*
X163666557Y-94361744D01*
X163519744Y-94202262D01*
X163323509Y-94049526D01*
X163323507Y-94049525D01*
X163323506Y-94049524D01*
X163104811Y-93931172D01*
X163104802Y-93931169D01*
X162869616Y-93850429D01*
X162624335Y-93809500D01*
X162375665Y-93809500D01*
X162130383Y-93850429D01*
X161895197Y-93931169D01*
X161895188Y-93931172D01*
X161676493Y-94049524D01*
X161480257Y-94202261D01*
X161311833Y-94385217D01*
X161175826Y-94593393D01*
X161075936Y-94821118D01*
X161014892Y-95062175D01*
X161014890Y-95062187D01*
X160994357Y-95309994D01*
X160994357Y-95310005D01*
X161014890Y-95557812D01*
X161014892Y-95557824D01*
X161075936Y-95798881D01*
X161175826Y-96026606D01*
X161311833Y-96234782D01*
X161311836Y-96234785D01*
X161466730Y-96403045D01*
X161497652Y-96465698D01*
X161499500Y-96487027D01*
X161499500Y-98034217D01*
X161479815Y-98101256D01*
X161463181Y-98121898D01*
X160912181Y-98672898D01*
X160850858Y-98706383D01*
X160781166Y-98701399D01*
X160725233Y-98659527D01*
X160700816Y-98594063D01*
X160700500Y-98585217D01*
X160700500Y-97905513D01*
X160670940Y-97718881D01*
X160643846Y-97635497D01*
X160612547Y-97539168D01*
X160612545Y-97539165D01*
X160612545Y-97539163D01*
X160556540Y-97429247D01*
X160526760Y-97370801D01*
X160415690Y-97217927D01*
X160282073Y-97084310D01*
X152855419Y-89657655D01*
X152821934Y-89596332D01*
X152819100Y-89569974D01*
X152819100Y-75483386D01*
X158799500Y-75483386D01*
X158799500Y-78596613D01*
X158805913Y-78667192D01*
X158805913Y-78667194D01*
X158805914Y-78667196D01*
X158856522Y-78829606D01*
X158944530Y-78975188D01*
X159064811Y-79095469D01*
X159064813Y-79095470D01*
X159064815Y-79095472D01*
X159210394Y-79183478D01*
X159372804Y-79234086D01*
X159443384Y-79240500D01*
X160925499Y-79240500D01*
X160992538Y-79260185D01*
X161038293Y-79312989D01*
X161049499Y-79364500D01*
X161049499Y-80927385D01*
X161029814Y-80994424D01*
X160977010Y-81040179D01*
X160907852Y-81050123D01*
X160873094Y-81039767D01*
X160775855Y-80994424D01*
X160693663Y-80956097D01*
X160693659Y-80956096D01*
X160693655Y-80956094D01*
X160465413Y-80894938D01*
X160465403Y-80894936D01*
X160230001Y-80874341D01*
X160229999Y-80874341D01*
X159994596Y-80894936D01*
X159994586Y-80894938D01*
X159766344Y-80956094D01*
X159766335Y-80956098D01*
X159552171Y-81055964D01*
X159552169Y-81055965D01*
X159358597Y-81191505D01*
X159191505Y-81358597D01*
X159055965Y-81552169D01*
X159055964Y-81552171D01*
X158956098Y-81766335D01*
X158956094Y-81766344D01*
X158894938Y-81994586D01*
X158894936Y-81994596D01*
X158874341Y-82229999D01*
X158874341Y-82230000D01*
X158894936Y-82465403D01*
X158894938Y-82465413D01*
X158956094Y-82693655D01*
X158956096Y-82693659D01*
X158956097Y-82693663D01*
X158988612Y-82763391D01*
X159055965Y-82907830D01*
X159055967Y-82907834D01*
X159191501Y-83101395D01*
X159191506Y-83101402D01*
X159193181Y-83103077D01*
X159193682Y-83103995D01*
X159194982Y-83105544D01*
X159194670Y-83105805D01*
X159226666Y-83164400D01*
X159229500Y-83190758D01*
X159229500Y-87328543D01*
X159267557Y-87519869D01*
X159267559Y-87519877D01*
X159267949Y-87521835D01*
X159267950Y-87521839D01*
X159343364Y-87703907D01*
X159343371Y-87703920D01*
X159452860Y-87867781D01*
X159452863Y-87867785D01*
X159596537Y-88011459D01*
X159596559Y-88011479D01*
X159909735Y-88324655D01*
X159909764Y-88324686D01*
X160052214Y-88467136D01*
X160052218Y-88467139D01*
X160216079Y-88576628D01*
X160216092Y-88576635D01*
X160344833Y-88629961D01*
X160387744Y-88647735D01*
X160398164Y-88652051D01*
X160494812Y-88671275D01*
X160543135Y-88680887D01*
X160591458Y-88690500D01*
X160591459Y-88690500D01*
X160591460Y-88690500D01*
X160788540Y-88690500D01*
X161327145Y-88690500D01*
X161394184Y-88710185D01*
X161418374Y-88730517D01*
X161480252Y-88797734D01*
X161480256Y-88797738D01*
X161676491Y-88950474D01*
X161895190Y-89068828D01*
X162130386Y-89149571D01*
X162375665Y-89190500D01*
X162624335Y-89190500D01*
X162869614Y-89149571D01*
X163104810Y-89068828D01*
X163323509Y-88950474D01*
X163519744Y-88797738D01*
X163688164Y-88614785D01*
X163824173Y-88406607D01*
X163924063Y-88178881D01*
X163985108Y-87937821D01*
X163985109Y-87937812D01*
X164005643Y-87690005D01*
X164005643Y-87689994D01*
X163985109Y-87442187D01*
X163985107Y-87442175D01*
X163937693Y-87254940D01*
X163940318Y-87185120D01*
X163980274Y-87127802D01*
X164044876Y-87101186D01*
X164057899Y-87100500D01*
X164928387Y-87100500D01*
X164995426Y-87120185D01*
X165004548Y-87126645D01*
X165176491Y-87260474D01*
X165395190Y-87378828D01*
X165630386Y-87459571D01*
X165875665Y-87500500D01*
X166124335Y-87500500D01*
X166369614Y-87459571D01*
X166604810Y-87378828D01*
X166823509Y-87260474D01*
X167019744Y-87107738D01*
X167188164Y-86924785D01*
X167324173Y-86716607D01*
X167424063Y-86488881D01*
X167485108Y-86247821D01*
X167486549Y-86230429D01*
X167505643Y-86000005D01*
X167505643Y-85999994D01*
X167485109Y-85752187D01*
X167485107Y-85752175D01*
X167424063Y-85511118D01*
X167324173Y-85283393D01*
X167188166Y-85075217D01*
X167112011Y-84992491D01*
X167019744Y-84892262D01*
X166823509Y-84739526D01*
X166823507Y-84739525D01*
X166823506Y-84739524D01*
X166604811Y-84621172D01*
X166604802Y-84621169D01*
X166369616Y-84540429D01*
X166124335Y-84499500D01*
X165875665Y-84499500D01*
X165630383Y-84540429D01*
X165395197Y-84621169D01*
X165395188Y-84621172D01*
X165176493Y-84739524D01*
X165004549Y-84873354D01*
X164939555Y-84898996D01*
X164928387Y-84899500D01*
X164507204Y-84899500D01*
X164440165Y-84879815D01*
X164419523Y-84863181D01*
X163118447Y-83562105D01*
X163084962Y-83500782D01*
X163089946Y-83431090D01*
X163095643Y-83418129D01*
X163169870Y-83272451D01*
X163169870Y-83272450D01*
X163169872Y-83272447D01*
X163223401Y-83107702D01*
X163250499Y-82936612D01*
X163250499Y-82763391D01*
X163250499Y-78704244D01*
X163262101Y-78655923D01*
X163260680Y-78655335D01*
X163262537Y-78650847D01*
X163262546Y-78650831D01*
X163320939Y-78471117D01*
X163350499Y-78284485D01*
X163350499Y-78095511D01*
X163320939Y-77908884D01*
X163320939Y-77908881D01*
X163262546Y-77729167D01*
X163262543Y-77729161D01*
X163214015Y-77633917D01*
X163200500Y-77577623D01*
X163200500Y-75483386D01*
X163194086Y-75412807D01*
X163194086Y-75412804D01*
X163143478Y-75250394D01*
X163055472Y-75104815D01*
X163055470Y-75104813D01*
X163055469Y-75104811D01*
X162935188Y-74984530D01*
X162892344Y-74958630D01*
X162789606Y-74896522D01*
X162627196Y-74845914D01*
X162627194Y-74845913D01*
X162627192Y-74845913D01*
X162577778Y-74841423D01*
X162556616Y-74839500D01*
X159443384Y-74839500D01*
X159424145Y-74841248D01*
X159372807Y-74845913D01*
X159210393Y-74896522D01*
X159064811Y-74984530D01*
X158944530Y-75104811D01*
X158856522Y-75250393D01*
X158805913Y-75412807D01*
X158799500Y-75483386D01*
X152819100Y-75483386D01*
X152819100Y-71343386D01*
X154199500Y-71343386D01*
X154199500Y-72656613D01*
X154205913Y-72727192D01*
X154205913Y-72727194D01*
X154205914Y-72727196D01*
X154246116Y-72856210D01*
X154256522Y-72889606D01*
X154344530Y-73035188D01*
X154464811Y-73155469D01*
X154464813Y-73155470D01*
X154464815Y-73155472D01*
X154610394Y-73243478D01*
X154772804Y-73294086D01*
X154843384Y-73300500D01*
X154843387Y-73300500D01*
X156156613Y-73300500D01*
X156156616Y-73300500D01*
X156227196Y-73294086D01*
X156389606Y-73243478D01*
X156413422Y-73229080D01*
X156431119Y-73218383D01*
X156495268Y-73200500D01*
X159116078Y-73200500D01*
X159183117Y-73220185D01*
X159219181Y-73255611D01*
X159250479Y-73302454D01*
X159440672Y-73519327D01*
X159657547Y-73709521D01*
X159897386Y-73869776D01*
X159897393Y-73869780D01*
X159969865Y-73905519D01*
X160156098Y-73997359D01*
X160429247Y-74090081D01*
X160712161Y-74146356D01*
X161000000Y-74165222D01*
X161287839Y-74146356D01*
X161570753Y-74090081D01*
X161843902Y-73997359D01*
X162102611Y-73869778D01*
X162342454Y-73709520D01*
X162559327Y-73519327D01*
X162749520Y-73302454D01*
X162807548Y-73215608D01*
X162861160Y-73170804D01*
X162910650Y-73160500D01*
X163411374Y-73160500D01*
X163478413Y-73180185D01*
X163499055Y-73196819D01*
X164763181Y-74460945D01*
X164796666Y-74522268D01*
X164799500Y-74548626D01*
X164799500Y-80057179D01*
X164779815Y-80124218D01*
X164779309Y-80125000D01*
X164675826Y-80283393D01*
X164575936Y-80511118D01*
X164514892Y-80752175D01*
X164514890Y-80752187D01*
X164494357Y-80999994D01*
X164494357Y-81000005D01*
X164514890Y-81247812D01*
X164514892Y-81247824D01*
X164575936Y-81488881D01*
X164675826Y-81716606D01*
X164811833Y-81924782D01*
X164811836Y-81924785D01*
X164980256Y-82107738D01*
X165176491Y-82260474D01*
X165395190Y-82378828D01*
X165630386Y-82459571D01*
X165875665Y-82500500D01*
X166124335Y-82500500D01*
X166369614Y-82459571D01*
X166604810Y-82378828D01*
X166823509Y-82260474D01*
X167019744Y-82107738D01*
X167188164Y-81924785D01*
X167324173Y-81716607D01*
X167424063Y-81488881D01*
X167485108Y-81247821D01*
X167485109Y-81247812D01*
X167505643Y-81000005D01*
X167505643Y-80999994D01*
X167485109Y-80752187D01*
X167485107Y-80752175D01*
X167424063Y-80511118D01*
X167324173Y-80283393D01*
X167220691Y-80125000D01*
X167200503Y-80058110D01*
X167200500Y-80057179D01*
X167200500Y-73905513D01*
X167170940Y-73718881D01*
X167112545Y-73539163D01*
X167052416Y-73421154D01*
X167026760Y-73370801D01*
X166971023Y-73294086D01*
X166971023Y-73294085D01*
X166971021Y-73294084D01*
X166943070Y-73255611D01*
X166915693Y-73217929D01*
X165236819Y-71539055D01*
X165203334Y-71477732D01*
X165200500Y-71451374D01*
X165200500Y-66548626D01*
X165220185Y-66481587D01*
X165236819Y-66460945D01*
X165911921Y-65785843D01*
X166915690Y-64782074D01*
X167026760Y-64629199D01*
X167112547Y-64460832D01*
X167170940Y-64281118D01*
X167184077Y-64198168D01*
X167200500Y-64094487D01*
X167200500Y-55905519D01*
X167182494Y-55791836D01*
X167182494Y-55791832D01*
X167170940Y-55718883D01*
X167170938Y-55718877D01*
X167168763Y-55712181D01*
X167112547Y-55539168D01*
X167112545Y-55539165D01*
X167112545Y-55539163D01*
X167067290Y-55450347D01*
X167026760Y-55370801D01*
X166915690Y-55217926D01*
X164782074Y-53084310D01*
X164629199Y-52973240D01*
X164603601Y-52960197D01*
X164460836Y-52887454D01*
X164281118Y-52829059D01*
X164094486Y-52799500D01*
X164094481Y-52799500D01*
X159364500Y-52799500D01*
X159297461Y-52779815D01*
X159251706Y-52727011D01*
X159240500Y-52675500D01*
X159240500Y-52443386D01*
X159234086Y-52372807D01*
X159234086Y-52372804D01*
X159183478Y-52210394D01*
X159095472Y-52064815D01*
X159095470Y-52064813D01*
X159095469Y-52064811D01*
X158975188Y-51944530D01*
X158878553Y-51886112D01*
X158829606Y-51856522D01*
X158667196Y-51805914D01*
X158667194Y-51805913D01*
X158667192Y-51805913D01*
X158617778Y-51801423D01*
X158596616Y-51799500D01*
X155483384Y-51799500D01*
X155464145Y-51801248D01*
X155412807Y-51805913D01*
X155250393Y-51856522D01*
X155104811Y-51944530D01*
X154984530Y-52064811D01*
X154896522Y-52210393D01*
X154845913Y-52372807D01*
X154839500Y-52443386D01*
X154839500Y-55556613D01*
X154845913Y-55627192D01*
X154896522Y-55789606D01*
X154984530Y-55935188D01*
X155104811Y-56055469D01*
X155104813Y-56055470D01*
X155104815Y-56055472D01*
X155250394Y-56143478D01*
X155412804Y-56194086D01*
X155483384Y-56200500D01*
X155483387Y-56200500D01*
X158596613Y-56200500D01*
X158596616Y-56200500D01*
X158667196Y-56194086D01*
X158829606Y-56143478D01*
X158975185Y-56055472D01*
X159095472Y-55935185D01*
X159183478Y-55789606D01*
X159234086Y-55627196D01*
X159240500Y-55556616D01*
X159240500Y-55324500D01*
X159260185Y-55257461D01*
X159312989Y-55211706D01*
X159364500Y-55200500D01*
X163451374Y-55200500D01*
X163518413Y-55220185D01*
X163539055Y-55236819D01*
X164763181Y-56460945D01*
X164796666Y-56522268D01*
X164799500Y-56548626D01*
X164799500Y-63451374D01*
X164779815Y-63518413D01*
X164763181Y-63539055D01*
X163459055Y-64843181D01*
X163397732Y-64876666D01*
X163371374Y-64879500D01*
X162238566Y-64879500D01*
X162171527Y-64859815D01*
X162132449Y-64819650D01*
X162119742Y-64798630D01*
X162055472Y-64692315D01*
X162055470Y-64692313D01*
X162055469Y-64692311D01*
X161935188Y-64572030D01*
X161883059Y-64540517D01*
X161789606Y-64484022D01*
X161627196Y-64433414D01*
X161627194Y-64433413D01*
X161627192Y-64433413D01*
X161577778Y-64428923D01*
X161556616Y-64427000D01*
X159443384Y-64427000D01*
X159424145Y-64428748D01*
X159372807Y-64433413D01*
X159210393Y-64484022D01*
X159064811Y-64572030D01*
X158944530Y-64692311D01*
X158856522Y-64837893D01*
X158805913Y-65000307D01*
X158799500Y-65070886D01*
X158799500Y-67089113D01*
X158805913Y-67159692D01*
X158805913Y-67159694D01*
X158805914Y-67159696D01*
X158856522Y-67322106D01*
X158915774Y-67420121D01*
X158944530Y-67467688D01*
X159064811Y-67587969D01*
X159064813Y-67587970D01*
X159064815Y-67587972D01*
X159210394Y-67675978D01*
X159372804Y-67726586D01*
X159443384Y-67733000D01*
X159443387Y-67733000D01*
X161556613Y-67733000D01*
X161556616Y-67733000D01*
X161627196Y-67726586D01*
X161789606Y-67675978D01*
X161935185Y-67587972D01*
X162055472Y-67467685D01*
X162132449Y-67340349D01*
X162183977Y-67293162D01*
X162238566Y-67280500D01*
X162675500Y-67280500D01*
X162742539Y-67300185D01*
X162788294Y-67352989D01*
X162799500Y-67404500D01*
X162799500Y-70345077D01*
X162779815Y-70412116D01*
X162727011Y-70457871D01*
X162657853Y-70467815D01*
X162594297Y-70438790D01*
X162582272Y-70426836D01*
X162559327Y-70400672D01*
X162342452Y-70210478D01*
X162102613Y-70050223D01*
X162102606Y-70050219D01*
X161843905Y-69922642D01*
X161570760Y-69829921D01*
X161570754Y-69829919D01*
X161570753Y-69829919D01*
X161570751Y-69829918D01*
X161570745Y-69829917D01*
X161287849Y-69773646D01*
X161287839Y-69773644D01*
X161000000Y-69754778D01*
X160712161Y-69773644D01*
X160712155Y-69773645D01*
X160712150Y-69773646D01*
X160429254Y-69829917D01*
X160429239Y-69829921D01*
X160156094Y-69922642D01*
X159897393Y-70050219D01*
X159897386Y-70050223D01*
X159657547Y-70210478D01*
X159440672Y-70400672D01*
X159250481Y-70617544D01*
X159165725Y-70744391D01*
X159112113Y-70789196D01*
X159062623Y-70799500D01*
X156495268Y-70799500D01*
X156431119Y-70781617D01*
X156389608Y-70756523D01*
X156389607Y-70756522D01*
X156389606Y-70756522D01*
X156227196Y-70705914D01*
X156227194Y-70705913D01*
X156227192Y-70705913D01*
X156177778Y-70701423D01*
X156156616Y-70699500D01*
X154843384Y-70699500D01*
X154824145Y-70701248D01*
X154772807Y-70705913D01*
X154610393Y-70756522D01*
X154464811Y-70844530D01*
X154344530Y-70964811D01*
X154256522Y-71110393D01*
X154205913Y-71272807D01*
X154199500Y-71343386D01*
X152819100Y-71343386D01*
X152819100Y-63930026D01*
X152838785Y-63862987D01*
X152855419Y-63842345D01*
X152915690Y-63782074D01*
X153026760Y-63629199D01*
X153112547Y-63460832D01*
X153170940Y-63281118D01*
X153193642Y-63137782D01*
X153200500Y-63094487D01*
X153200500Y-62797100D01*
X153220185Y-62730061D01*
X153272989Y-62684306D01*
X153324500Y-62673100D01*
X160121885Y-62673100D01*
X160204506Y-62660013D01*
X160266202Y-62650242D01*
X160304993Y-62650242D01*
X160322406Y-62653000D01*
X160322409Y-62653000D01*
X160677593Y-62653000D01*
X160677594Y-62653000D01*
X160934578Y-62612297D01*
X161182032Y-62531895D01*
X161413861Y-62413772D01*
X161624357Y-62260837D01*
X161808337Y-62076857D01*
X161961272Y-61866361D01*
X162079395Y-61634532D01*
X162159797Y-61387078D01*
X162200500Y-61130094D01*
X162200500Y-60869906D01*
X162159797Y-60612922D01*
X162113723Y-60471119D01*
X162079396Y-60365470D01*
X162079395Y-60365467D01*
X161961271Y-60133638D01*
X161955456Y-60125634D01*
X161808337Y-59923143D01*
X161624357Y-59739163D01*
X161413861Y-59586228D01*
X161401406Y-59579882D01*
X161182032Y-59468104D01*
X161182029Y-59468103D01*
X160934579Y-59387703D01*
X160806086Y-59367351D01*
X160677594Y-59347000D01*
X160322406Y-59347000D01*
X160236744Y-59360567D01*
X160065420Y-59387703D01*
X159817970Y-59468103D01*
X159817967Y-59468104D01*
X159586138Y-59586228D01*
X159496932Y-59651041D01*
X159375643Y-59739163D01*
X159375641Y-59739165D01*
X159375640Y-59739165D01*
X159191665Y-59923140D01*
X159191665Y-59923141D01*
X159191663Y-59923143D01*
X159179550Y-59939815D01*
X159038728Y-60133638D01*
X159002676Y-60204395D01*
X158954701Y-60255191D01*
X158892191Y-60272100D01*
X152995268Y-60272100D01*
X152931119Y-60254217D01*
X152889608Y-60229123D01*
X152889607Y-60229122D01*
X152889606Y-60229122D01*
X152727196Y-60178514D01*
X152727194Y-60178513D01*
X152727192Y-60178513D01*
X152677778Y-60174023D01*
X152656616Y-60172100D01*
X151343384Y-60172100D01*
X151324145Y-60173848D01*
X151272807Y-60178513D01*
X151110391Y-60229123D01*
X151068881Y-60254217D01*
X151004732Y-60272100D01*
X150258426Y-60272100D01*
X150191387Y-60252415D01*
X150170745Y-60235781D01*
X149236819Y-59301855D01*
X149203334Y-59240532D01*
X149200500Y-59214174D01*
X149200500Y-57905513D01*
X149170940Y-57718881D01*
X149112545Y-57539163D01*
X149026759Y-57370800D01*
X148915690Y-57217927D01*
X148782073Y-57084310D01*
X148629199Y-56973240D01*
X148563962Y-56940000D01*
X148460836Y-56887454D01*
X148281118Y-56829059D01*
X148094486Y-56799500D01*
X148094481Y-56799500D01*
X147443134Y-56799500D01*
X147376095Y-56779815D01*
X147366972Y-56773354D01*
X147323510Y-56739527D01*
X147323509Y-56739526D01*
X147223165Y-56685222D01*
X147104811Y-56621172D01*
X147104802Y-56621169D01*
X146869616Y-56540429D01*
X146624335Y-56499500D01*
X146375665Y-56499500D01*
X146130383Y-56540429D01*
X145895197Y-56621169D01*
X145895183Y-56621175D01*
X145829517Y-56656712D01*
X145761189Y-56671307D01*
X145695817Y-56646644D01*
X145654156Y-56590553D01*
X145646500Y-56547657D01*
X145646500Y-53547456D01*
X145617459Y-53401461D01*
X145617459Y-53401460D01*
X145608052Y-53354170D01*
X145608051Y-53354164D01*
X145554917Y-53225888D01*
X145532632Y-53172086D01*
X145532628Y-53172080D01*
X145423139Y-53008217D01*
X145137785Y-52722863D01*
X145137781Y-52722860D01*
X144973920Y-52613371D01*
X144973911Y-52613366D01*
X144901315Y-52583296D01*
X144845165Y-52560038D01*
X144791836Y-52537949D01*
X144791832Y-52537948D01*
X144791828Y-52537946D01*
X144695188Y-52518724D01*
X144598544Y-52499500D01*
X144598541Y-52499500D01*
X132281459Y-52499500D01*
X132281455Y-52499500D01*
X132184812Y-52518724D01*
X132088167Y-52537947D01*
X132088161Y-52537949D01*
X132034834Y-52560037D01*
X132034834Y-52560038D01*
X131989315Y-52578892D01*
X131906089Y-52613366D01*
X131906079Y-52613371D01*
X131742218Y-52722860D01*
X131742214Y-52722863D01*
X131491509Y-52973568D01*
X131430186Y-53007053D01*
X131360494Y-53002069D01*
X131304561Y-52960197D01*
X131280144Y-52894733D01*
X131284052Y-52853802D01*
X131300548Y-52792238D01*
X131330500Y-52564734D01*
X131330500Y-52335266D01*
X131300548Y-52107762D01*
X131241158Y-51886113D01*
X131153344Y-51674112D01*
X131038611Y-51475388D01*
X131038608Y-51475385D01*
X131038607Y-51475382D01*
X130898918Y-51293338D01*
X130898911Y-51293330D01*
X130736670Y-51131089D01*
X130736661Y-51131081D01*
X130554617Y-50991392D01*
X130355890Y-50876657D01*
X130355876Y-50876650D01*
X130143887Y-50788842D01*
X129922238Y-50729452D01*
X129884215Y-50724446D01*
X129694741Y-50699500D01*
X129694734Y-50699500D01*
X129465266Y-50699500D01*
X129465258Y-50699500D01*
X129248715Y-50728009D01*
X129237762Y-50729452D01*
X129144076Y-50754554D01*
X129016112Y-50788842D01*
X128804123Y-50876650D01*
X128804109Y-50876657D01*
X128605382Y-50991392D01*
X128423338Y-51131081D01*
X128261081Y-51293338D01*
X128121392Y-51475382D01*
X128006657Y-51674109D01*
X128006650Y-51674123D01*
X127918842Y-51886112D01*
X127899416Y-51958611D01*
X127870960Y-52064815D01*
X127859453Y-52107759D01*
X127859451Y-52107770D01*
X127829500Y-52335258D01*
X127829500Y-52564741D01*
X127854446Y-52754215D01*
X127859452Y-52792238D01*
X127884965Y-52887454D01*
X127918842Y-53013887D01*
X128006650Y-53225876D01*
X128006656Y-53225888D01*
X128121392Y-53424617D01*
X128261081Y-53606661D01*
X128261089Y-53606670D01*
X128423330Y-53768911D01*
X128423338Y-53768918D01*
X128605382Y-53908607D01*
X128605385Y-53908608D01*
X128605388Y-53908611D01*
X128804112Y-54023344D01*
X128804117Y-54023346D01*
X128804123Y-54023349D01*
X128852898Y-54043552D01*
X129016113Y-54111158D01*
X129167274Y-54151661D01*
X129226931Y-54188023D01*
X129257461Y-54250870D01*
X129249167Y-54320246D01*
X129204682Y-54374124D01*
X129188981Y-54383153D01*
X129147375Y-54403190D01*
X129147372Y-54403191D01*
X128936782Y-54546768D01*
X128749952Y-54720121D01*
X128749950Y-54720123D01*
X128591041Y-54919388D01*
X128463608Y-55140109D01*
X128370492Y-55377362D01*
X128370490Y-55377369D01*
X128313777Y-55625845D01*
X128294732Y-55879995D01*
X128294732Y-55880004D01*
X128313777Y-56134154D01*
X128313778Y-56134157D01*
X128370492Y-56382637D01*
X128445200Y-56572989D01*
X128463608Y-56619890D01*
X128464348Y-56621172D01*
X128591041Y-56840612D01*
X128670301Y-56940000D01*
X128749954Y-57039882D01*
X128770669Y-57059103D01*
X128806422Y-57119132D01*
X128804046Y-57188961D01*
X128770669Y-57240897D01*
X128749954Y-57260117D01*
X128591041Y-57459388D01*
X128463608Y-57680109D01*
X128370492Y-57917362D01*
X128370490Y-57917369D01*
X128313777Y-58165845D01*
X128294732Y-58419995D01*
X128294732Y-58420004D01*
X128313777Y-58674154D01*
X128313778Y-58674157D01*
X128370492Y-58922637D01*
X128463607Y-59159888D01*
X128591041Y-59380612D01*
X128660813Y-59468103D01*
X128749954Y-59579882D01*
X128770669Y-59599103D01*
X128806422Y-59659132D01*
X128804046Y-59728961D01*
X128770669Y-59780897D01*
X128749954Y-59800117D01*
X128591041Y-59999388D01*
X128463608Y-60220109D01*
X128370492Y-60457362D01*
X128370490Y-60457369D01*
X128313777Y-60705845D01*
X128294732Y-60959995D01*
X128294732Y-60960004D01*
X128313777Y-61214154D01*
X128313778Y-61214157D01*
X128370492Y-61462637D01*
X128463607Y-61699888D01*
X128591041Y-61920612D01*
X128715644Y-62076859D01*
X128749954Y-62119882D01*
X128770669Y-62139103D01*
X128806422Y-62199132D01*
X128804046Y-62268961D01*
X128770669Y-62320897D01*
X128749954Y-62340117D01*
X128591041Y-62539388D01*
X128463608Y-62760109D01*
X128370492Y-62997362D01*
X128370490Y-62997369D01*
X128313777Y-63245845D01*
X128294732Y-63499995D01*
X128294732Y-63500004D01*
X128313777Y-63754154D01*
X128338617Y-63862987D01*
X128370492Y-64002637D01*
X128463607Y-64239888D01*
X128591041Y-64460612D01*
X128708371Y-64607739D01*
X128749954Y-64659882D01*
X128770669Y-64679103D01*
X128806422Y-64739132D01*
X128804046Y-64808961D01*
X128770669Y-64860897D01*
X128749954Y-64880117D01*
X128591041Y-65079388D01*
X128463608Y-65300109D01*
X128370492Y-65537362D01*
X128370490Y-65537369D01*
X128313777Y-65785845D01*
X128294732Y-66039995D01*
X128294732Y-66040004D01*
X128313777Y-66294154D01*
X128368467Y-66533768D01*
X128370492Y-66542637D01*
X128463607Y-66779888D01*
X128591041Y-67000612D01*
X128717907Y-67159696D01*
X128749954Y-67199882D01*
X128770669Y-67219103D01*
X128806422Y-67279132D01*
X128804046Y-67348961D01*
X128770669Y-67400897D01*
X128749954Y-67420117D01*
X128591041Y-67619388D01*
X128463608Y-67840109D01*
X128370492Y-68077362D01*
X128370490Y-68077369D01*
X128313777Y-68325845D01*
X128294732Y-68579995D01*
X128294732Y-68580004D01*
X128313777Y-68834154D01*
X128313778Y-68834157D01*
X128370492Y-69082637D01*
X128463607Y-69319888D01*
X128591041Y-69540612D01*
X128749949Y-69739876D01*
X128749954Y-69739882D01*
X128770669Y-69759103D01*
X128806422Y-69819132D01*
X128804046Y-69888961D01*
X128770669Y-69940897D01*
X128749954Y-69960117D01*
X128591041Y-70159388D01*
X128463608Y-70380109D01*
X128370492Y-70617362D01*
X128370490Y-70617369D01*
X128313777Y-70865845D01*
X128294732Y-71119995D01*
X128294732Y-71120004D01*
X128313777Y-71374154D01*
X128313778Y-71374157D01*
X128370492Y-71622637D01*
X128463607Y-71859888D01*
X128591041Y-72080612D01*
X128677975Y-72189623D01*
X128749954Y-72279882D01*
X128770669Y-72299103D01*
X128806422Y-72359132D01*
X128804046Y-72428961D01*
X128770669Y-72480897D01*
X128749954Y-72500117D01*
X128591041Y-72699388D01*
X128463608Y-72920109D01*
X128370492Y-73157362D01*
X128370490Y-73157369D01*
X128313777Y-73405845D01*
X128294732Y-73659995D01*
X128294732Y-73660004D01*
X128313777Y-73914154D01*
X128367473Y-74149413D01*
X128370492Y-74162637D01*
X128463607Y-74399888D01*
X128591041Y-74620612D01*
X128749949Y-74819876D01*
X128749954Y-74819882D01*
X128770669Y-74839103D01*
X128806422Y-74899132D01*
X128804046Y-74968961D01*
X128770669Y-75020897D01*
X128749954Y-75040117D01*
X128591041Y-75239388D01*
X128463608Y-75460109D01*
X128370492Y-75697362D01*
X128370490Y-75697369D01*
X128313777Y-75945845D01*
X128294732Y-76199995D01*
X128294732Y-76200004D01*
X128313777Y-76454154D01*
X128313778Y-76454157D01*
X128370492Y-76702637D01*
X128463607Y-76939888D01*
X128591041Y-77160612D01*
X128721738Y-77324500D01*
X128749954Y-77359882D01*
X128770669Y-77379103D01*
X128806422Y-77439132D01*
X128804046Y-77508961D01*
X128770669Y-77560897D01*
X128749954Y-77580117D01*
X128591041Y-77779388D01*
X128463608Y-78000109D01*
X128370492Y-78237362D01*
X128370490Y-78237369D01*
X128313777Y-78485845D01*
X128294732Y-78739995D01*
X128294732Y-78740004D01*
X128313777Y-78994154D01*
X128336902Y-79095472D01*
X128370492Y-79242637D01*
X128463607Y-79479888D01*
X128591041Y-79700612D01*
X128693911Y-79829606D01*
X128749954Y-79899882D01*
X128770669Y-79919103D01*
X128806422Y-79979132D01*
X128804046Y-80048961D01*
X128770669Y-80100897D01*
X128749954Y-80120117D01*
X128591041Y-80319388D01*
X128463608Y-80540109D01*
X128370492Y-80777362D01*
X128370490Y-80777369D01*
X128313777Y-81025845D01*
X128294732Y-81279995D01*
X128294732Y-81280004D01*
X128313777Y-81534154D01*
X128366771Y-81766337D01*
X128370492Y-81782637D01*
X128463607Y-82019888D01*
X128591041Y-82240612D01*
X128749949Y-82439876D01*
X128749954Y-82439882D01*
X128770669Y-82459103D01*
X128806422Y-82519132D01*
X128804046Y-82588961D01*
X128770669Y-82640897D01*
X128749954Y-82660117D01*
X128591041Y-82859388D01*
X128463608Y-83080109D01*
X128370492Y-83317362D01*
X128370490Y-83317369D01*
X128313777Y-83565845D01*
X128294732Y-83819995D01*
X128294732Y-83820004D01*
X128313777Y-84074154D01*
X128313778Y-84074157D01*
X128370492Y-84322637D01*
X128463607Y-84559888D01*
X128591041Y-84780612D01*
X128736863Y-84963466D01*
X128749954Y-84979882D01*
X128770669Y-84999103D01*
X128806422Y-85059132D01*
X128804046Y-85128961D01*
X128770669Y-85180897D01*
X128749954Y-85200117D01*
X128591041Y-85399388D01*
X128463608Y-85620109D01*
X128370492Y-85857362D01*
X128370490Y-85857369D01*
X128313777Y-86105845D01*
X128294732Y-86359995D01*
X128294732Y-86360004D01*
X128313777Y-86614154D01*
X128337161Y-86716607D01*
X128370492Y-86862637D01*
X128463607Y-87099888D01*
X128591041Y-87320612D01*
X128749950Y-87519877D01*
X128936783Y-87693232D01*
X129147366Y-87836805D01*
X129147371Y-87836807D01*
X129147372Y-87836808D01*
X129147373Y-87836809D01*
X129269328Y-87895538D01*
X129376992Y-87947387D01*
X129376993Y-87947387D01*
X129376996Y-87947389D01*
X129620542Y-88022513D01*
X129872565Y-88060500D01*
X130127435Y-88060500D01*
X130379458Y-88022513D01*
X130623004Y-87947389D01*
X130852634Y-87836805D01*
X131063217Y-87693232D01*
X131250050Y-87519877D01*
X131408959Y-87320612D01*
X131536393Y-87099888D01*
X131629508Y-86862637D01*
X131686222Y-86614157D01*
X131705268Y-86360000D01*
X131689277Y-86146615D01*
X131703896Y-86078294D01*
X131725246Y-86049673D01*
X135631140Y-82143781D01*
X135740632Y-81979914D01*
X135816052Y-81797835D01*
X135854500Y-81604540D01*
X135854500Y-81407459D01*
X135854500Y-77324500D01*
X135874185Y-77257461D01*
X135926989Y-77211706D01*
X135978500Y-77200500D01*
X137207145Y-77200500D01*
X137274184Y-77220185D01*
X137298374Y-77240517D01*
X137360252Y-77307734D01*
X137360256Y-77307738D01*
X137443008Y-77372147D01*
X137483821Y-77428857D01*
X137487496Y-77498630D01*
X137452864Y-77559313D01*
X137443014Y-77567848D01*
X137360256Y-77632262D01*
X137349452Y-77643997D01*
X137191833Y-77815217D01*
X137055826Y-78023393D01*
X136955936Y-78251118D01*
X136894892Y-78492175D01*
X136894890Y-78492187D01*
X136880054Y-78671230D01*
X136874409Y-78699307D01*
X136829060Y-78838878D01*
X136799500Y-79025513D01*
X136799500Y-85057179D01*
X136779815Y-85124218D01*
X136779309Y-85125000D01*
X136675826Y-85283393D01*
X136575936Y-85511118D01*
X136514892Y-85752175D01*
X136514890Y-85752187D01*
X136494357Y-85999994D01*
X136494357Y-86000005D01*
X136514890Y-86247812D01*
X136514892Y-86247824D01*
X136575936Y-86488881D01*
X136675825Y-86716603D01*
X136675827Y-86716607D01*
X136779309Y-86874999D01*
X136799496Y-86941887D01*
X136799500Y-86942819D01*
X136799500Y-88951373D01*
X136779815Y-89018412D01*
X136763181Y-89039054D01*
X132587680Y-93214554D01*
X132526357Y-93248039D01*
X132456665Y-93243055D01*
X132412318Y-93214554D01*
X132282076Y-93084312D01*
X132282075Y-93084311D01*
X132282074Y-93084310D01*
X132129199Y-92973240D01*
X131960832Y-92887453D01*
X131870975Y-92858256D01*
X131781116Y-92829059D01*
X131762071Y-92826043D01*
X131698937Y-92796112D01*
X131662007Y-92736800D01*
X131663004Y-92666940D01*
X131694086Y-92567196D01*
X131700500Y-92496616D01*
X131700500Y-90383384D01*
X131694086Y-90312804D01*
X131643478Y-90150394D01*
X131555472Y-90004815D01*
X131555470Y-90004813D01*
X131555469Y-90004811D01*
X131435188Y-89884530D01*
X131289606Y-89796522D01*
X131241876Y-89781649D01*
X131127196Y-89745914D01*
X131127194Y-89745913D01*
X131127192Y-89745913D01*
X131077778Y-89741423D01*
X131056616Y-89739500D01*
X128943384Y-89739500D01*
X128924145Y-89741248D01*
X128872807Y-89745913D01*
X128710393Y-89796522D01*
X128564811Y-89884530D01*
X128444530Y-90004811D01*
X128356522Y-90150393D01*
X128305913Y-90312807D01*
X128299500Y-90383386D01*
X128299500Y-92496613D01*
X128305913Y-92567192D01*
X128305913Y-92567194D01*
X128305914Y-92567196D01*
X128328168Y-92638613D01*
X128329318Y-92708470D01*
X128292517Y-92767863D01*
X128229448Y-92797931D01*
X128209782Y-92799500D01*
X107708625Y-92799500D01*
X107641586Y-92779815D01*
X107620944Y-92763181D01*
X106338409Y-91480646D01*
X106304924Y-91419323D01*
X106302438Y-91402240D01*
X106286222Y-91185843D01*
X106229508Y-90937363D01*
X106136393Y-90700112D01*
X106008959Y-90479388D01*
X105850050Y-90280123D01*
X105663217Y-90106768D01*
X105452634Y-89963195D01*
X105452630Y-89963193D01*
X105452627Y-89963191D01*
X105452626Y-89963190D01*
X105223006Y-89852612D01*
X105223008Y-89852612D01*
X104979466Y-89777489D01*
X104979462Y-89777488D01*
X104979458Y-89777487D01*
X104858231Y-89759214D01*
X104727440Y-89739500D01*
X104727435Y-89739500D01*
X104472565Y-89739500D01*
X104472559Y-89739500D01*
X104315609Y-89763157D01*
X104220542Y-89777487D01*
X104220539Y-89777488D01*
X104220533Y-89777489D01*
X104207047Y-89781649D01*
X104137184Y-89782597D01*
X104077898Y-89745625D01*
X104048013Y-89682469D01*
X104046500Y-89663157D01*
X104046500Y-88379781D01*
X104066185Y-88312742D01*
X104082815Y-88292104D01*
X104290871Y-88084047D01*
X104352192Y-88050564D01*
X104397032Y-88049115D01*
X104436205Y-88055019D01*
X104472565Y-88060500D01*
X104727435Y-88060500D01*
X104979458Y-88022513D01*
X105223004Y-87947389D01*
X105452634Y-87836805D01*
X105663217Y-87693232D01*
X105850050Y-87519877D01*
X106008959Y-87320612D01*
X106136393Y-87099888D01*
X106229508Y-86862637D01*
X106286222Y-86614157D01*
X106305268Y-86360000D01*
X106292623Y-86191267D01*
X106290976Y-86169285D01*
X106286222Y-86105843D01*
X106229508Y-85857363D01*
X106136393Y-85620112D01*
X106008959Y-85399388D01*
X105850050Y-85200123D01*
X105829330Y-85180898D01*
X105793576Y-85120870D01*
X105795951Y-85051041D01*
X105829331Y-84999101D01*
X105829954Y-84998523D01*
X105850050Y-84979877D01*
X106008959Y-84780612D01*
X106136393Y-84559888D01*
X106229508Y-84322637D01*
X106286222Y-84074157D01*
X106305268Y-83820000D01*
X106286222Y-83565843D01*
X106229508Y-83317363D01*
X106136393Y-83080112D01*
X106008959Y-82859388D01*
X105850050Y-82660123D01*
X105829330Y-82640898D01*
X105793576Y-82580870D01*
X105795951Y-82511041D01*
X105829331Y-82459101D01*
X105850050Y-82439877D01*
X106008959Y-82240612D01*
X106136393Y-82019888D01*
X106229508Y-81782637D01*
X106286222Y-81534157D01*
X106294384Y-81425232D01*
X106305268Y-81280004D01*
X106305268Y-81279995D01*
X106286222Y-81025845D01*
X106280324Y-81000005D01*
X106229508Y-80777363D01*
X106136393Y-80540112D01*
X106008959Y-80319388D01*
X105850050Y-80120123D01*
X105829330Y-80100898D01*
X105793576Y-80040870D01*
X105795951Y-79971041D01*
X105829331Y-79919101D01*
X105850050Y-79899877D01*
X106008959Y-79700612D01*
X106136393Y-79479888D01*
X106229508Y-79242637D01*
X106286222Y-78994157D01*
X106305268Y-78740000D01*
X106301191Y-78685599D01*
X106286697Y-78492179D01*
X106286222Y-78485843D01*
X106229508Y-78237363D01*
X106136393Y-78000112D01*
X106008959Y-77779388D01*
X105850050Y-77580123D01*
X105829330Y-77560898D01*
X105793576Y-77500870D01*
X105795951Y-77431041D01*
X105829331Y-77379101D01*
X105850050Y-77359877D01*
X106008959Y-77160612D01*
X106136393Y-76939888D01*
X106229508Y-76702637D01*
X106286222Y-76454157D01*
X106305268Y-76200000D01*
X106286222Y-75945843D01*
X106229508Y-75697363D01*
X106136393Y-75460112D01*
X106008959Y-75239388D01*
X105850050Y-75040123D01*
X105829330Y-75020898D01*
X105793576Y-74960870D01*
X105795951Y-74891041D01*
X105829331Y-74839101D01*
X105850050Y-74819877D01*
X106008959Y-74620612D01*
X106136393Y-74399888D01*
X106229508Y-74162637D01*
X106286222Y-73914157D01*
X106305268Y-73660000D01*
X106286222Y-73405843D01*
X106229508Y-73157363D01*
X106136393Y-72920112D01*
X106008959Y-72699388D01*
X105850050Y-72500123D01*
X105829330Y-72480898D01*
X105793576Y-72420870D01*
X105795951Y-72351041D01*
X105829331Y-72299101D01*
X105850050Y-72279877D01*
X106008959Y-72080612D01*
X106136393Y-71859888D01*
X106229508Y-71622637D01*
X106286222Y-71374157D01*
X106305268Y-71120000D01*
X106304548Y-71110394D01*
X106286222Y-70865845D01*
X106271079Y-70799500D01*
X106229508Y-70617363D01*
X106136393Y-70380112D01*
X106008959Y-70159388D01*
X105850050Y-69960123D01*
X105829330Y-69940898D01*
X105793576Y-69880870D01*
X105795951Y-69811041D01*
X105829331Y-69759101D01*
X105833990Y-69754778D01*
X105850050Y-69739877D01*
X106008959Y-69540612D01*
X106136393Y-69319888D01*
X106229508Y-69082637D01*
X106286222Y-68834157D01*
X106305268Y-68580000D01*
X106286222Y-68325843D01*
X106229508Y-68077363D01*
X106136393Y-67840112D01*
X106008959Y-67619388D01*
X105850050Y-67420123D01*
X105829330Y-67400898D01*
X105793576Y-67340870D01*
X105795951Y-67271041D01*
X105829331Y-67219101D01*
X105850050Y-67199877D01*
X106008959Y-67000612D01*
X106136393Y-66779888D01*
X106229508Y-66542637D01*
X106286222Y-66294157D01*
X106305268Y-66040000D01*
X106286222Y-65785843D01*
X106229508Y-65537363D01*
X106136393Y-65300112D01*
X106008959Y-65079388D01*
X105850050Y-64880123D01*
X105829330Y-64860898D01*
X105793576Y-64800870D01*
X105795951Y-64731041D01*
X105829331Y-64679101D01*
X105850050Y-64659877D01*
X106008959Y-64460612D01*
X106136393Y-64239888D01*
X106229508Y-64002637D01*
X106286222Y-63754157D01*
X106298930Y-63584579D01*
X106305268Y-63500004D01*
X106305268Y-63499995D01*
X106289300Y-63286913D01*
X106286222Y-63245843D01*
X106229508Y-62997363D01*
X106136393Y-62760112D01*
X106008959Y-62539388D01*
X105850050Y-62340123D01*
X105829330Y-62320898D01*
X105793576Y-62260870D01*
X105795951Y-62191041D01*
X105829331Y-62139101D01*
X105850050Y-62119877D01*
X106008959Y-61920612D01*
X106136393Y-61699888D01*
X106229508Y-61462637D01*
X106286222Y-61214157D01*
X106305268Y-60960000D01*
X106286222Y-60705843D01*
X106229508Y-60457363D01*
X106136393Y-60220112D01*
X106008959Y-59999388D01*
X105850050Y-59800123D01*
X105829330Y-59780898D01*
X105793576Y-59720870D01*
X105795951Y-59651041D01*
X105829331Y-59599101D01*
X105850050Y-59579877D01*
X106008959Y-59380612D01*
X106136393Y-59159888D01*
X106229508Y-58922637D01*
X106286222Y-58674157D01*
X106305268Y-58420000D01*
X106286222Y-58165843D01*
X106229508Y-57917363D01*
X106136393Y-57680112D01*
X106008959Y-57459388D01*
X105850050Y-57260123D01*
X105829330Y-57240898D01*
X105793576Y-57180870D01*
X105795951Y-57111041D01*
X105829331Y-57059101D01*
X105850050Y-57039877D01*
X106008959Y-56840612D01*
X106136393Y-56619888D01*
X106229508Y-56382637D01*
X106286222Y-56134157D01*
X106294384Y-56025232D01*
X106305268Y-55880004D01*
X106305268Y-55879995D01*
X106286222Y-55625845D01*
X106270420Y-55556613D01*
X106229508Y-55377363D01*
X106136393Y-55140112D01*
X106008959Y-54919388D01*
X105850050Y-54720123D01*
X105663217Y-54546768D01*
X105452634Y-54403195D01*
X105452630Y-54403193D01*
X105452627Y-54403191D01*
X105452624Y-54403190D01*
X105428893Y-54391761D01*
X105377034Y-54344938D01*
X105358722Y-54277511D01*
X105379771Y-54210887D01*
X105433498Y-54166220D01*
X105450587Y-54160272D01*
X105633887Y-54111158D01*
X105845888Y-54023344D01*
X106044612Y-53908611D01*
X106226661Y-53768919D01*
X106226665Y-53768914D01*
X106226670Y-53768911D01*
X106388911Y-53606670D01*
X106388914Y-53606665D01*
X106388919Y-53606661D01*
X106528611Y-53424612D01*
X106643344Y-53225888D01*
X106731158Y-53013887D01*
X106790548Y-52792238D01*
X106820500Y-52564734D01*
X106820500Y-52335266D01*
X106790548Y-52107762D01*
X106731158Y-51886113D01*
X106643344Y-51674112D01*
X106528611Y-51475388D01*
X106528608Y-51475385D01*
X106528607Y-51475382D01*
X106388918Y-51293338D01*
X106388911Y-51293330D01*
X106226670Y-51131089D01*
X106226661Y-51131081D01*
X106044617Y-50991392D01*
X105845890Y-50876657D01*
X105845876Y-50876650D01*
X105633887Y-50788842D01*
X105412238Y-50729452D01*
X105374215Y-50724446D01*
X105184741Y-50699500D01*
X105184734Y-50699500D01*
X104955266Y-50699500D01*
X104955258Y-50699500D01*
X104738715Y-50728009D01*
X104727762Y-50729452D01*
X104634076Y-50754554D01*
X104506112Y-50788842D01*
X104294123Y-50876650D01*
X104294109Y-50876657D01*
X104095382Y-50991392D01*
X103913338Y-51131081D01*
X103751081Y-51293338D01*
X103611392Y-51475382D01*
X103496657Y-51674109D01*
X103496650Y-51674123D01*
X103408842Y-51886112D01*
X103389416Y-51958611D01*
X103360960Y-52064815D01*
X103349453Y-52107759D01*
X103349451Y-52107770D01*
X103319500Y-52335258D01*
X103319500Y-52564741D01*
X103344446Y-52754215D01*
X103349452Y-52792238D01*
X103374965Y-52887454D01*
X103408842Y-53013887D01*
X103496650Y-53225876D01*
X103496656Y-53225888D01*
X103611392Y-53424617D01*
X103751081Y-53606661D01*
X103751089Y-53606670D01*
X103913330Y-53768911D01*
X103913338Y-53768918D01*
X104095382Y-53908607D01*
X104095385Y-53908608D01*
X104095388Y-53908611D01*
X104241529Y-53992985D01*
X104289745Y-54043552D01*
X104302968Y-54112159D01*
X104277000Y-54177024D01*
X104220085Y-54217552D01*
X104216079Y-54218863D01*
X103976992Y-54292612D01*
X103747373Y-54403190D01*
X103747372Y-54403191D01*
X103536782Y-54546768D01*
X103349952Y-54720121D01*
X103349950Y-54720123D01*
X103191041Y-54919388D01*
X103063608Y-55140109D01*
X102970492Y-55377362D01*
X102970490Y-55377369D01*
X102913777Y-55625845D01*
X102894732Y-55879995D01*
X102894732Y-55880004D01*
X102913777Y-56134154D01*
X102913778Y-56134157D01*
X102970492Y-56382637D01*
X103045200Y-56572989D01*
X103063608Y-56619890D01*
X103064348Y-56621172D01*
X103191041Y-56840612D01*
X103270301Y-56940000D01*
X103349954Y-57039882D01*
X103370669Y-57059103D01*
X103406422Y-57119132D01*
X103404046Y-57188961D01*
X103370669Y-57240897D01*
X103349954Y-57260117D01*
X103191041Y-57459388D01*
X103063608Y-57680109D01*
X102970492Y-57917362D01*
X102970490Y-57917369D01*
X102913777Y-58165845D01*
X102894732Y-58419995D01*
X102894732Y-58420004D01*
X102913777Y-58674154D01*
X102913778Y-58674157D01*
X102970492Y-58922637D01*
X103063607Y-59159888D01*
X103191041Y-59380612D01*
X103260813Y-59468103D01*
X103349954Y-59579882D01*
X103370669Y-59599103D01*
X103406422Y-59659132D01*
X103404046Y-59728961D01*
X103370669Y-59780897D01*
X103349954Y-59800117D01*
X103191041Y-59999388D01*
X103063608Y-60220109D01*
X102970492Y-60457362D01*
X102970490Y-60457369D01*
X102913777Y-60705845D01*
X102894732Y-60959995D01*
X102894732Y-60960004D01*
X102913777Y-61214154D01*
X102913778Y-61214157D01*
X102970492Y-61462637D01*
X103063607Y-61699888D01*
X103191041Y-61920612D01*
X103315644Y-62076859D01*
X103349954Y-62119882D01*
X103370669Y-62139103D01*
X103406422Y-62199132D01*
X103404046Y-62268961D01*
X103370669Y-62320897D01*
X103349954Y-62340117D01*
X103191041Y-62539388D01*
X103063608Y-62760109D01*
X102970492Y-62997362D01*
X102970490Y-62997369D01*
X102913777Y-63245845D01*
X102894732Y-63499995D01*
X102894732Y-63500004D01*
X102913777Y-63754154D01*
X102938617Y-63862987D01*
X102970492Y-64002637D01*
X103063607Y-64239888D01*
X103191041Y-64460612D01*
X103308371Y-64607739D01*
X103349954Y-64659882D01*
X103370669Y-64679103D01*
X103406422Y-64739132D01*
X103404046Y-64808961D01*
X103370669Y-64860897D01*
X103349954Y-64880117D01*
X103191041Y-65079388D01*
X103063608Y-65300109D01*
X102970492Y-65537362D01*
X102970490Y-65537369D01*
X102913777Y-65785845D01*
X102894732Y-66039995D01*
X102894732Y-66040004D01*
X102913777Y-66294154D01*
X102968467Y-66533768D01*
X102970492Y-66542637D01*
X103063607Y-66779888D01*
X103191041Y-67000612D01*
X103317907Y-67159696D01*
X103349954Y-67199882D01*
X103370669Y-67219103D01*
X103406422Y-67279132D01*
X103404046Y-67348961D01*
X103370669Y-67400897D01*
X103349954Y-67420117D01*
X103191041Y-67619388D01*
X103063608Y-67840109D01*
X102970492Y-68077362D01*
X102970490Y-68077369D01*
X102913777Y-68325845D01*
X102894732Y-68579995D01*
X102894732Y-68580004D01*
X102913777Y-68834154D01*
X102913778Y-68834157D01*
X102970492Y-69082637D01*
X103063607Y-69319888D01*
X103191041Y-69540612D01*
X103349949Y-69739876D01*
X103349954Y-69739882D01*
X103370669Y-69759103D01*
X103406422Y-69819132D01*
X103404046Y-69888961D01*
X103370669Y-69940897D01*
X103349954Y-69960117D01*
X103191041Y-70159388D01*
X103063608Y-70380109D01*
X102970492Y-70617362D01*
X102970490Y-70617369D01*
X102913777Y-70865845D01*
X102894732Y-71119995D01*
X102894732Y-71120004D01*
X102913777Y-71374154D01*
X102913778Y-71374157D01*
X102970492Y-71622637D01*
X103063607Y-71859888D01*
X103191041Y-72080612D01*
X103277975Y-72189623D01*
X103349954Y-72279882D01*
X103370669Y-72299103D01*
X103406422Y-72359132D01*
X103404046Y-72428961D01*
X103370669Y-72480897D01*
X103349954Y-72500117D01*
X103191041Y-72699388D01*
X103063608Y-72920109D01*
X102970492Y-73157362D01*
X102970490Y-73157369D01*
X102913777Y-73405845D01*
X102894732Y-73659995D01*
X102894732Y-73660004D01*
X102913777Y-73914154D01*
X102967473Y-74149413D01*
X102970492Y-74162637D01*
X103063607Y-74399888D01*
X103191041Y-74620612D01*
X103349949Y-74819876D01*
X103349954Y-74819882D01*
X103370669Y-74839103D01*
X103406422Y-74899132D01*
X103404046Y-74968961D01*
X103370669Y-75020897D01*
X103349954Y-75040117D01*
X103191041Y-75239388D01*
X103063608Y-75460109D01*
X102970492Y-75697362D01*
X102970490Y-75697369D01*
X102913777Y-75945845D01*
X102894732Y-76199995D01*
X102894732Y-76200004D01*
X102913777Y-76454154D01*
X102913778Y-76454157D01*
X102970492Y-76702637D01*
X103063607Y-76939888D01*
X103191041Y-77160612D01*
X103321738Y-77324500D01*
X103349954Y-77359882D01*
X103370669Y-77379103D01*
X103406422Y-77439132D01*
X103404046Y-77508961D01*
X103370669Y-77560897D01*
X103349954Y-77580117D01*
X103191041Y-77779388D01*
X103063608Y-78000109D01*
X102970492Y-78237362D01*
X102970490Y-78237369D01*
X102913777Y-78485845D01*
X102894732Y-78739995D01*
X102894732Y-78740004D01*
X102913777Y-78994154D01*
X102936902Y-79095472D01*
X102970492Y-79242637D01*
X103063607Y-79479888D01*
X103191041Y-79700612D01*
X103293911Y-79829606D01*
X103349954Y-79899882D01*
X103370669Y-79919103D01*
X103406422Y-79979132D01*
X103404046Y-80048961D01*
X103370669Y-80100897D01*
X103349954Y-80120117D01*
X103191041Y-80319388D01*
X103063608Y-80540109D01*
X102970492Y-80777362D01*
X102970490Y-80777369D01*
X102913777Y-81025845D01*
X102894732Y-81279995D01*
X102894732Y-81280004D01*
X102913777Y-81534154D01*
X102966771Y-81766337D01*
X102970492Y-81782637D01*
X103063607Y-82019888D01*
X103191041Y-82240612D01*
X103349949Y-82439876D01*
X103349954Y-82439882D01*
X103370669Y-82459103D01*
X103406422Y-82519132D01*
X103404046Y-82588961D01*
X103370669Y-82640897D01*
X103349954Y-82660117D01*
X103191041Y-82859388D01*
X103063608Y-83080109D01*
X102970492Y-83317362D01*
X102970490Y-83317369D01*
X102913777Y-83565845D01*
X102894732Y-83819995D01*
X102894732Y-83820004D01*
X102913777Y-84074154D01*
X102913778Y-84074157D01*
X102970492Y-84322637D01*
X103063607Y-84559888D01*
X103191041Y-84780612D01*
X103336863Y-84963466D01*
X103349954Y-84979882D01*
X103370669Y-84999103D01*
X103406422Y-85059132D01*
X103404046Y-85128961D01*
X103370669Y-85180897D01*
X103349954Y-85200117D01*
X103191041Y-85399388D01*
X103063608Y-85620109D01*
X102970492Y-85857362D01*
X102970490Y-85857369D01*
X102913777Y-86105845D01*
X102894732Y-86359995D01*
X102894732Y-86360004D01*
X102910721Y-86573382D01*
X102896101Y-86641705D01*
X102874749Y-86670329D01*
X102639176Y-86905903D01*
X102408221Y-87136858D01*
X102408218Y-87136861D01*
X102359959Y-87185120D01*
X102268859Y-87276219D01*
X102159371Y-87440079D01*
X102159364Y-87440092D01*
X102083950Y-87622160D01*
X102083947Y-87622170D01*
X102045500Y-87815456D01*
X102045500Y-87815459D01*
X102045500Y-92182229D01*
X102045500Y-92182231D01*
X102045499Y-92182231D01*
X100000000Y-92182231D01*
X100000000Y-48124000D01*
X100019685Y-48056961D01*
X100072489Y-48011206D01*
X100124000Y-48000000D01*
X107876000Y-48000000D01*
X107943039Y-48019685D01*
G37*
%TD.AperFunction*%
%TD*%
M02*
