%TF.GenerationSoftware,KiCad,Pcbnew,8.0.4*%
%TF.CreationDate,2024-09-08T20:37:16-05:00*%
%TF.ProjectId,rtt_version_final,7274745f-7665-4727-9369-6f6e5f66696e,rev?*%
%TF.SameCoordinates,Original*%
%TF.FileFunction,Copper,L1,Top*%
%TF.FilePolarity,Positive*%
%FSLAX46Y46*%
G04 Gerber Fmt 4.6, Leading zero omitted, Abs format (unit mm)*
G04 Created by KiCad (PCBNEW 8.0.4) date 2024-09-08 20:37:16*
%MOMM*%
%LPD*%
G01*
G04 APERTURE LIST*
%TA.AperFunction,ComponentPad*%
%ADD10R,3.000000X3.000000*%
%TD*%
%TA.AperFunction,ComponentPad*%
%ADD11C,3.000000*%
%TD*%
%TA.AperFunction,ComponentPad*%
%ADD12R,1.200000X1.200000*%
%TD*%
%TA.AperFunction,ComponentPad*%
%ADD13C,1.200000*%
%TD*%
%TA.AperFunction,ComponentPad*%
%ADD14C,1.600000*%
%TD*%
%TA.AperFunction,ComponentPad*%
%ADD15R,2.000000X1.905000*%
%TD*%
%TA.AperFunction,ComponentPad*%
%ADD16O,2.000000X1.905000*%
%TD*%
%TA.AperFunction,ComponentPad*%
%ADD17R,1.600000X1.600000*%
%TD*%
%TA.AperFunction,ComponentPad*%
%ADD18O,1.600000X1.600000*%
%TD*%
%TA.AperFunction,ComponentPad*%
%ADD19C,1.300000*%
%TD*%
%TA.AperFunction,ComponentPad*%
%ADD20R,2.000000X2.000000*%
%TD*%
%TA.AperFunction,ComponentPad*%
%ADD21C,2.000000*%
%TD*%
%TA.AperFunction,ViaPad*%
%ADD22C,1.300000*%
%TD*%
%TA.AperFunction,Conductor*%
%ADD23C,1.000000*%
%TD*%
G04 APERTURE END LIST*
D10*
%TO.P,J3,1,Pin_1*%
%TO.N,/motor_fuerza*%
X161000000Y-77040000D03*
D11*
%TO.P,J3,2,Pin_2*%
%TO.N,+9V*%
X161000000Y-71960000D03*
%TD*%
D12*
%TO.P,C4,1*%
%TO.N,+5V*%
X152000000Y-61472600D03*
D13*
%TO.P,C4,2*%
%TO.N,GND*%
X152000000Y-59472600D03*
%TD*%
D10*
%TO.P,J1,1,Pin_1*%
%TO.N,/pot_4y*%
X140420000Y-98000000D03*
D11*
%TO.P,J1,2,Pin_2*%
%TO.N,/pot_3y*%
X145500000Y-98000000D03*
%TO.P,J1,3,Pin_3*%
%TO.N,/pot_1y*%
X150580000Y-98000000D03*
%TO.P,J1,4,Pin_4*%
%TO.N,/pot_2y*%
X155660000Y-98000000D03*
%TD*%
D12*
%TO.P,C3,1*%
%TO.N,+9V*%
X155500000Y-72000000D03*
D13*
%TO.P,C3,2*%
%TO.N,GND*%
X153500000Y-72000000D03*
%TD*%
D14*
%TO.P,C2,1*%
%TO.N,GND*%
X133000000Y-86000000D03*
%TO.P,C2,2*%
%TO.N,+5V*%
X138000000Y-86000000D03*
%TD*%
%TO.P,C1,1*%
%TO.N,+5V*%
X146500000Y-58000000D03*
%TO.P,C1,2*%
%TO.N,GND*%
X146500000Y-53000000D03*
%TD*%
D15*
%TO.P,U1,1,VI*%
%TO.N,+9V*%
X160500000Y-66080000D03*
D16*
%TO.P,U1,2,GND*%
%TO.N,GND*%
X160500000Y-63540000D03*
%TO.P,U1,3,VO*%
%TO.N,+5V*%
X160500000Y-61000000D03*
%TD*%
D17*
%TO.P,U2,1,EN1\u002C2*%
%TO.N,/EN12*%
X146000000Y-78740000D03*
D18*
%TO.P,U2,2,1A*%
%TO.N,/1A*%
X146000000Y-76200000D03*
%TO.P,U2,3,1Y*%
%TO.N,/pot_1y*%
X146000000Y-73660000D03*
%TO.P,U2,4,GND*%
%TO.N,GND*%
X146000000Y-71120000D03*
%TO.P,U2,5,GND*%
X146000000Y-68580000D03*
%TO.P,U2,6,2Y*%
%TO.N,/pot_2y*%
X146000000Y-66040000D03*
%TO.P,U2,7,2A*%
%TO.N,/2A*%
X146000000Y-63500000D03*
%TO.P,U2,8,VCC2*%
%TO.N,+5V*%
X146000000Y-60960000D03*
%TO.P,U2,9,EN3\u002C4*%
%TO.N,/EN34*%
X138380000Y-60960000D03*
%TO.P,U2,10,3A*%
%TO.N,/3A*%
X138380000Y-63500000D03*
%TO.P,U2,11,3Y*%
%TO.N,/pot_3y*%
X138380000Y-66040000D03*
%TO.P,U2,12,GND*%
%TO.N,GND*%
X138380000Y-68580000D03*
%TO.P,U2,13,GND*%
X138380000Y-71120000D03*
%TO.P,U2,14,4Y*%
%TO.N,/pot_4y*%
X138380000Y-73660000D03*
%TO.P,U2,15,4A*%
%TO.N,/4A*%
X138380000Y-76200000D03*
%TO.P,U2,16,VCC1*%
%TO.N,+5V*%
X138380000Y-78740000D03*
%TD*%
D19*
%TO.P,Q2,1,E*%
%TO.N,GND*%
X158960000Y-83500000D03*
%TO.P,Q2,2,B*%
%TO.N,Net-(Q2-B)*%
X160230000Y-82230000D03*
%TO.P,Q2,3,C*%
%TO.N,/motor_fuerza*%
X161500000Y-83500000D03*
%TD*%
D20*
%TO.P,U3,1,3V3*%
%TO.N,unconnected-(U3-3V3-Pad1)*%
X130000000Y-91440000D03*
D21*
%TO.P,U3,2,GND*%
%TO.N,GND*%
X130000000Y-88900000D03*
%TO.P,U3,3,D15*%
%TO.N,/4A*%
X130000000Y-86360000D03*
%TO.P,U3,4,D2*%
%TO.N,/3A*%
X130000000Y-83820000D03*
%TO.P,U3,5,D4*%
%TO.N,/EN34*%
X130000000Y-81280000D03*
%TO.P,U3,6,RX2*%
%TO.N,unconnected-(U3-RX2-Pad6)*%
X130000000Y-78740000D03*
%TO.P,U3,7,TX2*%
%TO.N,unconnected-(U3-TX2-Pad7)*%
X130000000Y-76200000D03*
%TO.P,U3,8,D5*%
%TO.N,unconnected-(U3-D5-Pad8)*%
X130000000Y-73660000D03*
%TO.P,U3,9,D18*%
%TO.N,unconnected-(U3-D18-Pad9)*%
X130000000Y-71120000D03*
%TO.P,U3,10,D19*%
%TO.N,unconnected-(U3-D19-Pad10)*%
X130000000Y-68580000D03*
%TO.P,U3,11,D21*%
%TO.N,/EN12*%
X130000000Y-66040000D03*
%TO.P,U3,12,RX0*%
%TO.N,unconnected-(U3-RX0-Pad12)*%
X130000000Y-63500000D03*
%TO.P,U3,13,TX0*%
%TO.N,unconnected-(U3-TX0-Pad13)*%
X130000000Y-60960000D03*
%TO.P,U3,14,D22*%
%TO.N,/1A*%
X130000000Y-58420000D03*
%TO.P,U3,15,D23*%
%TO.N,/2A*%
X130000000Y-55880000D03*
%TO.P,U3,16,EN*%
%TO.N,unconnected-(U3-EN-Pad16)*%
X104600000Y-55880000D03*
%TO.P,U3,17,VP*%
%TO.N,unconnected-(U3-VP-Pad17)*%
X104600000Y-58420000D03*
%TO.P,U3,18,VN*%
%TO.N,unconnected-(U3-VN-Pad18)*%
X104600000Y-60960000D03*
%TO.P,U3,19,D34*%
%TO.N,unconnected-(U3-D34-Pad19)*%
X104600000Y-63500000D03*
%TO.P,U3,20,D35*%
%TO.N,unconnected-(U3-D35-Pad20)*%
X104600000Y-66040000D03*
%TO.P,U3,21,D32*%
%TO.N,unconnected-(U3-D32-Pad21)*%
X104600000Y-68580000D03*
%TO.P,U3,22,D33*%
%TO.N,unconnected-(U3-D33-Pad22)*%
X104600000Y-71120000D03*
%TO.P,U3,23,D25*%
%TO.N,unconnected-(U3-D25-Pad23)*%
X104600000Y-73660000D03*
%TO.P,U3,24,D26*%
%TO.N,unconnected-(U3-D26-Pad24)*%
X104600000Y-76200000D03*
%TO.P,U3,25,D27*%
%TO.N,unconnected-(U3-D27-Pad25)*%
X104600000Y-78740000D03*
%TO.P,U3,26,D14*%
%TO.N,unconnected-(U3-D14-Pad26)*%
X104600000Y-81280000D03*
%TO.P,U3,27,D12*%
%TO.N,unconnected-(U3-D12-Pad27)*%
X104600000Y-83820000D03*
%TO.P,U3,28,D13*%
%TO.N,/pwm*%
X104600000Y-86360000D03*
%TO.P,U3,29,GND*%
%TO.N,GND*%
X104600000Y-88900000D03*
%TO.P,U3,30,VIN*%
%TO.N,+5V*%
X104600000Y-91440000D03*
%TD*%
D14*
%TO.P,C5,1*%
%TO.N,+9V*%
X166000000Y-81000000D03*
%TO.P,C5,2*%
%TO.N,/motor_fuerza*%
X166000000Y-86000000D03*
%TD*%
D10*
%TO.P,J2,1,Pin_1*%
%TO.N,+9V*%
X157040000Y-54000000D03*
D11*
%TO.P,J2,2,Pin_2*%
%TO.N,GND*%
X151960000Y-54000000D03*
%TD*%
D14*
%TO.P,R1,1*%
%TO.N,/pwm*%
X162500000Y-95310000D03*
D18*
%TO.P,R1,2*%
%TO.N,Net-(Q2-B)*%
X162500000Y-87690000D03*
%TD*%
D22*
%TO.N,GND*%
X147500000Y-72000000D03*
X136500000Y-68500000D03*
X155000000Y-78500000D03*
X135500000Y-84000000D03*
%TD*%
D23*
%TO.N,GND*%
X136500000Y-68500000D02*
X135500000Y-69500000D01*
X147500000Y-72000000D02*
X154000000Y-78500000D01*
X154000000Y-78500000D02*
X155000000Y-78500000D01*
X135500000Y-69500000D02*
X135500000Y-84000000D01*
%TD*%
M02*
