M48
; DRILL file {KiCad 8.0.4} date 2024-09-08T20:36:52-0500
; FORMAT={-:-/ absolute / inch / decimal}
; #@! TF.CreationDate,2024-09-08T20:36:52-05:00
; #@! TF.GenerationSoftware,Kicad,Pcbnew,8.0.4
; #@! TF.FileFunction,Plated,1,2,PTH
FMAT,2
INCH
; #@! TA.AperFunction,Plated,PTH,ComponentDrill
T1C0.0236
; #@! TA.AperFunction,Plated,PTH,ViaDrill
T2C0.0256
; #@! TA.AperFunction,Plated,PTH,ComponentDrill
T3C0.0295
; #@! TA.AperFunction,Plated,PTH,ComponentDrill
T4C0.0315
; #@! TA.AperFunction,Plated,PTH,ComponentDrill
T5C0.0402
; #@! TA.AperFunction,Plated,PTH,ComponentDrill
T6C0.0433
; #@! TA.AperFunction,Plated,PTH,ComponentDrill
T7C0.0598
%
G90
G05
T1
X5.9843Y-2.3414
X5.9843Y-2.4202
X6.0433Y-2.8346
X6.122Y-2.8346
T2
X5.3346Y-3.3071
X5.374Y-2.6969
X5.8071Y-2.8346
X6.1024Y-3.0906
T3
X6.2583Y-3.2874
X6.3083Y-3.2374
X6.3583Y-3.2874
T4
X5.2362Y-3.3858
X5.4331Y-3.3858
X5.448Y-2.4
X5.448Y-2.5
X5.448Y-2.6
X5.448Y-2.7
X5.448Y-2.8
X5.448Y-2.9
X5.448Y-3.0
X5.448Y-3.1
X5.748Y-2.4
X5.748Y-2.5
X5.748Y-2.6
X5.748Y-2.7
X5.748Y-2.8
X5.748Y-2.9
X5.748Y-3.0
X5.748Y-3.1
X5.7677Y-2.0866
X5.7677Y-2.2835
X6.3976Y-3.4524
X6.3976Y-3.7524
X6.5354Y-3.189
X6.5354Y-3.3858
T5
X4.1181Y-2.2
X4.1181Y-2.3
X4.1181Y-2.4
X4.1181Y-2.5
X4.1181Y-2.6
X4.1181Y-2.7
X4.1181Y-2.8
X4.1181Y-2.9
X4.1181Y-3.0
X4.1181Y-3.1
X4.1181Y-3.2
X4.1181Y-3.3
X4.1181Y-3.4
X4.1181Y-3.5
X4.1181Y-3.6
X5.1181Y-2.2
X5.1181Y-2.3
X5.1181Y-2.4
X5.1181Y-2.5
X5.1181Y-2.6
X5.1181Y-2.7
X5.1181Y-2.8
X5.1181Y-2.9
X5.1181Y-3.0
X5.1181Y-3.1
X5.1181Y-3.2
X5.1181Y-3.3
X5.1181Y-3.4
X5.1181Y-3.5
X5.1181Y-3.6
T6
X6.3189Y-2.4016
X6.3189Y-2.5016
X6.3189Y-2.6016
T7
X5.5283Y-3.8583
X5.7283Y-3.8583
X5.9283Y-3.8583
X5.9827Y-2.126
X6.1283Y-3.8583
X6.1827Y-2.126
X6.3386Y-2.8331
X6.3386Y-3.0331
M30
